<?xml version="1.0" encoding="UTF-8"?>
<svg id="Camada_2" data-name="Camada 2" xmlns="http://www.w3.org/2000/svg" xmlns:xlink="http://www.w3.org/1999/xlink" viewBox="0 0 2551.18 1417.32">
  <defs>
    <style>
      .cls-1 {
        fill: #1d3d8f;
      }

      .cls-2 {
        fill: none;
      }

      .cls-3 {
        fill: #f6e4d8;
      }

      .cls-4 {
        clip-path: url(#clippath-1);
      }

      .cls-5 {
        clip-path: url(#clippath-3);
      }

      .cls-6 {
        clip-path: url(#clippath-2);
      }

      .cls-7 {
        clip-path: url(#clippath);
      }
    </style>
    <clipPath id="clippath">
      <rect class="cls-2" y="708.66" width="1275.59" height="708.66"/>
    </clipPath>
    <clipPath id="clippath-1">
      <rect class="cls-2" x="1275.59" y="708.66" width="1275.59" height="708.66"/>
    </clipPath>
    <clipPath id="clippath-2">
      <rect class="cls-2" x="1275.59" width="1275.59" height="708.66"/>
    </clipPath>
    <clipPath id="clippath-3">
      <rect class="cls-2" width="1275.59" height="708.66"/>
    </clipPath>
  </defs>
  <g id="Camada_1-2" data-name="Camada 1">
    <g>
      <g class="cls-7">
        <g>
          <path class="cls-3" d="M1186.72,1393.56c-21.55-6.18-1.27-53.98-28.33-51.94-26.92,2.03-18.13,40.67-33.94,48.6-16.48,8.27-36.01-15.07-57.65-10.66-15,3.05-44.64,18.97-39.45,38.09,10.88,40.11,61.28-27.05,74.56,7.81,14.16,37.17-70.46,21.66-49.58,62.86,15.94,31.44,57.79-4.72,70.07-22.31,9.16-13.12,14.99-49.47,22-54.8,23.07-17.54,40.37,7.34,37.25,30.79-1.4,10.5-50.95,71.77-59.67,78.33-21.12,15.9-49.74.1-59.31,17.95-12.63,23.54,31.38,42.79,48.65,39.99,32.6-5.29,48.94-70.88,77.27-78.44,23.67-6.31,80.56,73.55,129.19,41.34,12.4-8.21,21.61-36.33,35.47-42.9,21.09-10,39.38,19.45,59.9.69,28.5-26.07-41.84-64.8-79.19-35.36-23.02,18.14-24.25,57.6-71.62,38.75-20.87-8.31-50.15-27.9-52.46-51.8-8.14-84.24,158.62-55.45,96.31-163.89-38.45-69.1-96.87,56.91-156.68-62.94-5.41-23.99,32.64-68.26,2.44-79.97-38.14-14.79-20.64,59.01-48.23,75.63-4.69,2.83-66.23,31.14-70.44,32.19-32.49,8.12-65.11-36.93-34.78-53.1,24.33-12.97,48.04,33.43,86.53-15.71,6.44-8.22,17.91-35.05,16.22-45.24-4.01-24.18-31.26-34.81-24.98-59.64,2.82-11.16,53.63-57.54,64.45-58.24,21.82-1.41,32.92,39.2,11.78,50.03-11.03,5.65-44.88-.65-38.04,27.44,8.95,36.76,45.66.12,68.09,18.78,42.48,35.34-29.34,113.78,33.62,123.63,40.86,6.39,83.1-41.4,115.37,17.49,26.43,48.23,1,75.97,67.13,89.29,50.37,10.15,64.35,1,110.36-7.47,43.45-8,81.91,80.81,100.91,81.44,30.87,1.03,31.89-43.01,57.29-58.2,26.74-15.99,129.85-36.39,158.9-27.92,17.88,5.21,56.32,34,58.68,54.47,1.96,16.99-26.93,83.1-39.91,91.2-50.27,31.38-60.39-27.63-87.54-32.43-22.38-3.96-48.85,16.93-73.27,19.36-23.21,2.31-43.89-20.37-64.53-18.25-32.56,3.35-30.03,28.89-52.45,40.48-14.58,7.54-62.41,18.69-74.2,3.41-9.35-12.11-9.15-40.91-31.65-37.68-18.88,2.7-27.9,19.03-20.45,36.41,1.81,4.23,46.17,55.04,49.62,56.56,22.8,10.05,63.36-47.19,78.69-13.17,19.07,42.3-73.11,30.61-75.27,77.24-2.38,51.56,77.16,29.45,64.33,69.15-11.53,35.65-82.2-15.11-95.12-31.24-27.3-34.1,37.83-75.35-29.83-109.54-28.87-14.59-116.8,4.23-82.19,48.42,24.71,31.56,48.76-35.44,71.34-10.6,31.74,34.9-32.56,67.99-64.29,58.07-25.62-8.01-47.79-92.76-101.02-47.24-11.09,9.49-68.04,71.64-77.79,84.38-17.95,23.48-21.39,60.38-56.19,63.96-18.16,1.86-36.4-12.03-55.1-12.23-25.92-.27-74.07,17.74-97.65-2.9-23.54-20.61-17.42-88.1,1.26-111.31,21.27-26.43,39.83,1.38,59.87,10.61,14.9,6.87,57.08,19.05,61.62,33.44,4.04,12.79-16.29,36.55,7.21,47.52,31.51,14.72,31.73-35.4,44.57-50.52,12.61-14.86,86.1-70.09,86.33-84.59.32-19.94-21.62-29.92-38.48-21.42-16.3,8.22-37.9,68.99-68.55,76.32-9.83,2.35-84.66-31.72-91.19-40.28-17.84-23.41,4.41-41.51.76-64.49-1.71-10.76-14.5-50.32-19.17-61.24-23.3-54.51-93.48-18.09-66.1,12.01,10.3,11.32,32.22,2.78,42.23,27.84,6.82,17.08,13.9,85.67-19.63,79.87-35.26-6.1-10.68-48.06-15.99-63.52-11.08-32.27-39.43-2.85-56.05,3.55-28.31,10.9-57.43-.32-74.55,35.22-8.07,16.74-.56,57.1-33.34,47.77-16.61-4.73-18.26-17.73-13.86-32.5,1.62-5.44,31.37-55.52,35.34-58.93,16.79-14.4,140.5-27.85,95.58-62.15-33.19-25.34-86.19,52.12-101.76,15.17-8.21-19.48,45.35-51.62,61.3-55.68,19.72-5.02,80.32,37.05,81.51-3.89,1.3-44.62-65.57-13.42-81.1-42.22-19.75-36.63-9.87-99.1-17.68-139.23-3.79-19.49-29.32-53.07,3.9-60.59,43.3-9.8,33.23,109.4,35.61,132.76,7.17,70.39,43.87,31.46,72.1,60.22,14.93,15.2,9.88,50.56,33.37,47.71,17.93-2.18,17.63-25,25.84-35.13,26.3-32.45,55.49-10.61,84.8-22.65,22.48-9.23,41.31-41,63.3-42.65,37.7-2.82,70.86,109.92,17.3,94.56ZM1828.56,1444.38c94.48-120.24-215.79-66.76-158.92-12.99,22.14,16.9,97.53-46.07,120.5-16.64,8.89,11.39,13.86,45,38.42,29.63ZM1052.89,1693.41c31.53-24.6-74.5-76.01-67.17-21.93,3.99,29.46,48.31,36.65,67.17,21.93ZM1554.25,1456.97c33.3-21.21-6.27-55.81-26.68-69.22-29.23-19.21-60.14,1.7-93.79,2.01-35.52.33-108.71-43.94-119.17,4.59-8.88,41.22,38.58,20.34,57.3,20.89,18.78.56,34.54,15.96,58.05,14.69,21.24-1.14,46.76-16.34,63.86-11.87,28.26,7.38,13.36,68.87,60.41,38.9ZM1296.16,1460.82c29.4-20.3-4.94-66.42-41.21-34.55-24.13,21.21,6.81,58.31,41.21,34.55Z"/>
          <path class="cls-3" d="M1455.58,1311.07c-103.78,26.29-96.31-159.67-8.68-112.63,8.41,4.22,51.11,45.8,53.48,53.41,6.36,20.41-27.36,55.45-44.8,59.22ZM1445.2,1277.21c23.89-5.69,16.01-37.34-2.63-45.74-42.74-19.25-43.54,56.74,2.63,45.74Z"/>
        </g>
        <path class="cls-3" d="M292.58,1441.48c-46.42,60.62,51.54,41.99,31.04,94.94-14.51,30.96-48.07-19.41-61.34-23.47-14.22-4.34-37.71,3.25-44.32-13.11-9.12-22.6,22.12-26.53,33.09-41.22,37.04-49.58,21.59-71.69,30.36-120.87,8.5-47.67,72.39-21.11,104.16-47.07,44.81-36.62-34.22-82.73,20.73-96.59,49.71-12.55,29.08,49.64,28.64,72.93-.6,31.3,19.52,63.2,38.17,87.24,19.76,25.48,59.26,41.9,41.25,78.24-13.45,27.13-53.9,16.21-58.08,72.27-3.55,47.56,29.28,42.51,34.99,71.22,2.86,14.38-2.61,42.18-21.03,41.63-32.07-.97-.62-74.02-67.82-64.98-38.25,5.14-35.44,64.46-94.96,71.86-41.27,5.13-38.77-25.02-67.96-36.61-18.48-7.34-43.11-2.73-58.71-14.29-14.71-10.9-20.23-43.17-32.91-58.34-11.72-14.02-43.56-28.8-61.68-29.77-17.96-.97-60.98,16.07-48.04-25.99,12.42-40.37,44.15-8.66,63.27-2.08,32.92,11.33,53.65,4.82,78.11,39.22,24.39,52.74,20.44,44.18,74.83,58.15,29.95,12.8,34.46,48.02,73.59,22.44,8.77-5.74,30.45-30.16,32.88-40.1,5.29-21.61-34.76-124.95-68.24-95.64ZM412.26,1526.15c23.33-4.47,18.99-41.81,12.88-58.72-9.35-25.87-46.38-54.99-58.34-79.85-7.04-14.64-5.9-32.35-12.59-42.17-11.44-16.8-34.15-9.62-38.53,8.37-11.94,48.98,45.72,69.8,64.16,109.41,10.06,21.62,2.89,68.62,32.42,62.96ZM461.86,1437.38c45.65-10.48-14.3-58.94-22.19-70.52-12.49-18.34-17.83-63.65-45.67-52.11-18.67,7.75-9.72,29.19-3.75,41.55,3.04,6.29,40.77,65.14,44.83,69.89,8.29,9.7,12.9,14.37,26.78,11.19Z"/>
        <path class="cls-3" d="M113.91,962.22c-5.89,6.5-11.43,43.36-18.22,58.08-4.11,8.91-33.5,54.77-40.35,57.58-31.14,12.78-83.14-48.98-105.11-47.19-12.44,1.02-72.37,42.68-69.52,60,6.66,40.48,53-7.84,62.02-10.84,26.38-8.77,67.21,32.82,96.36,37.27,15.92,18.4,20.32,36.68,37.72,55.48,13.35,14.42,76,55.88,79.44,63.06,11.31,23.57-4.45,48.56-29.52,29.56-39.6-30.02-103.39-116.5-142.9-133.76-52.35-22.87-75.36,27.08-129.46-6.16-38.83-23.86-1.59-63.71,20.87-85.08,13.19-12.54,46.89-30.79,53.62-41.68,24.08-38.98-23.79-82.01,52.06-117.5,72.2-33.78,54.04,31.47,95.77,47.45,51.3,19.65,38.15-63.1,93.93-66.55,63.58-3.93,50.45,96.39,6.61,101.81-20.03,2.48-44.52-22.31-63.35-1.54ZM44.05,1032.37c11.7-3.96,51.73-70.45,24.35-82.44-33.3-14.57-22.94,59.07-56.48,38.81-41.27-24.93,44.12-63.31,2.99-81.17-40.82-17.73-54.28,60.78-44.97,88.21,4.98,14.65,56.81,42.44,74.11,36.58ZM171.23,932.07c14.73-5.73,15.35-33.86-2.75-35.8-35.74-3.83-32.16,49.37,2.75,35.8Z"/>
        <path class="cls-3" d="M-220.73,1159.2c23.56-4.63,24.86,30.37,37.25,47.71,60.83,85.16,61.01-30.74,102.29-43.55,3.96-1.23,61.83-2.7,68.49-2.18,30.16,2.39,33.21,43.98,2.57,44.7-125.78-43.16-61.27,143.56-165.38,55.63-9.44-8.35-28.45-37.16-33.96-39.05-32.7-11.23-31.94,36.37-7.75,57.29,6.92,5.98,89.49,53.35,94.94,53.3,39.73-.37,48.39-76.72,68.21-90.44,33.96-23.51,113.14,1.23,104.01,49.27-2.96,15.6-19.11,36.93-36.38,25.64-12.63-8.27,2.43-64.5-40.81-50.69-30.85,9.86.73,40.12,1.68,50.88,3.15,35.73-68.51-4.3-64.36,37.92,2.5,25.39,46.44,19.86,62.81,13.01,57.85-56.34,89.82,23.91,24.77,37.8-98,13.47-116.18-34.45-189.9-73.43-17.07-9.03-44.26-11.95-56.58-24.25-13.7-13.69-20.88-53.79-17.53-72.45,2.14-11.92,33.97-74.81,45.63-77.1Z"/>
        <path class="cls-3" d="M573.28,1557.8c-28.17-20.85,7.23-47.27,17.15-64.66,10.11-17.71,8.17-36.97,23.13-52.17,43.94-44.64,70.93,15.32,99.85.63,15.37-7.81,45.79-42.5,46.33-60.08.24-8-41.35-77.98-48.75-82.58-8.51-5.28-49.06.13-59.3,3.28-17.1,5.26-48.25,31.64-62.66,9.85-13.38-20.23,24.92-41.41,40.86-46.23,26.83-8.1,61.87,15.53,79.25-11.17,6.21-9.54-1.65-32.57,17.78-35.46,29.02-4.32,14.59,45.22,18.51,59.84,3.84,14.33,31.72,65.47,43.64,72.65,11.97,7.22,34.25-3.51,41.42,15.59,9.06,24.13-31.63,27.88-42.98,37.93-13.86,12.27-14.12,35.26-26.83,48.43-13.16,13.64-30.22,13.26-42,26.91-15.76,18.27-10.37,82.64-58.09,70.39-44.13-11.33,10.12-44.01,17.69-52.32,21.9-24.07-15.17-54.23-42.21-24.93-31.4,35.38-4.09,105.6-62.79,84.09Z"/>
        <path class="cls-3" d="M179.59,1395.26c-31.73-7.98-56.13-29.01-51.31-64.31,7.44-54.5,48.98-37.24,88.37-34.98,105.26-22.41,20.87,111.63-37.06,99.29ZM182.78,1362.49c30.78,7.96,60.45-38.06,11.02-43.68-29.38-3.34-43.5,35.28-11.02,43.68Z"/>
        <path class="cls-3" d="M97.54,1411.21c-5.63-2.46-51.03-58.04-51.59-63.57-1.92-19.12,23.25-25.41,25.1-48.97,1.63-20.71-30.15-38.67-10.39-54.56,18.34-14.75,48.35,13.47,50.59,32.99,2.75,23.9-30.62,57.07-15,75.34,7.06,8.26,18.87,12.05,26.47,21.8,14.49,18.6-6.25,45.25-25.18,36.97Z"/>
        <g>
          <path class="cls-3" d="M282.46,1295.01c-27.24,6.37-26.86-26.59-42.33-39.98-21.09-18.26-45.45-6.68-60.55-41.14-14.97-34.15-3.45-68.12-4.67-102.06-12.9-48.97-14.31-54.09,40.38-48.38,15.74-1.4,27.68-12.23,45.71-9.34,13.85,2.22,74.54,40.76,78.74,54.37,7.37,23.86.32,109.39-33.4,111.38-42.66,2.51-.36-52.63,1.23-64.08,7.89-56.72-97.01-105.73-104.15-18.13-6.45,79.18,20.03,63.23,68.69,95.81,21.03,14.09,41.46,54.26,10.34,61.54Z"/>
          <path class="cls-3" d="M258.97,1185.55c-30.52,6.59-36.57-51.93-12.27-56.86,33.17-6.73,35.74,51.79,12.27,56.86Z"/>
        </g>
        <g>
          <g>
            <path class="cls-3" d="M541.35,977.87c55.3-27.84,5.21,64,43.8,90.88,31.64,22.43,59.22,3,87.58,7.11,76.2,35.2,88.51,67.51,132.28-36.47,6.11-33.7-26.64-51.6-18.87-86.77,3.25-14.69,15.72-24.84,15.74-43.81.02-18.86-18.01-32.24-17.22-53.67.35-9.45,12.21-74.67,14.93-84.54,3.39-12.32,19.79-25.85,24.09-39.83,16.3-53.07-27.7-45.92-33.52-72.46-4.36-19.9-1.17-91.52,36.24-67.75,23.55,14.96-16.15,59.39,9.38,72.24,33.71,16.97,38-46.23,35.48-64.68-2.69-19.73-33.12-35.62-35.43-69.25-4.52-65.67,64.7-47.16,68.88-88.37,1.26-12.47-2.55-22.48-15.5-25.83-36.69-9.49-40.42,29.47-59.74,48.92-39.74,40.02-49.8-6.9-75.02-27.68-48.01-53.28-246.85-15.66-201.36,73.8,11.61,21.25,62.73,42.67,85.56,40.33,29.5-3.03,21.33-48.04-6.57-50.25-14.15-1.12-35.19,16.11-46.74-3.25-15.3-25.64,31.11-40.11,48.99-44.68,45.66-11.66,28.47,43.04,52.23,71.8,20.53,24.84,56.37,24.79,68.47,69.99,10.64,39.76-7.15,47.28-11.17,75.8-4.35,30.83,24.38,22.08,39.1,34.02,16.91,13.7,6.16,40.7-14.58,39.65-3.47-.17-61.15-25.76-63.42-28.39-13.96-16.2,13.81-62.1,15.64-83.94,2.06-24.63-16.72-72.38-46-70.26-34.64,2.5-3.13,38.75.92,48.13,14.4,33.32-3.95,47.8-8.84,78.35-5.64,35.18-5.32,81.93-14.1,116.35-9.47,37.13-78.41,33.22-73.17,80.48,2.57,23.18,47.6,28.69,32.87,59.15-17.78,36.77-73.76-19.19-70.55-53.37,1.32-14.11,11.28-26.4,11.18-43.72-.09-15.99-11.77-31.57-12.08-50.51-.42-26.06,15.42-53.42,12.83-74.37-1.71-13.81-29.41-46.53-37.68-62.43-6.28-12.07-8.77-24.66-14.02-36.6-5.31-12.06-44.01-63.25-4.63-63.9,39.72-.66,39.22,72.73,51.89,96.19,14.86,27.51,47.32,32.36,43.94,71.53-1.73,20.01-38.29,85.6-7.98,92.42,41.8,9.41,42.13-113.83,45.23-136.58,3.68-27.04,20.62-43.56,8.02-77.52-13.81-37.24-43.68-22.87-70.06-32.1-12.68-4.44-50.52-42.26-52.59-56.9-2.18-15.45,9.02-64.12-27.28-48.88-26.03,10.93-5.32,43.33-5.95,60.63-1.42,38.87-43.92,27.27-44.22-3.59-.1-10.15,12.66-73.82,17.74-80.55,19.67-26.1,44.53-.41,66.92-4.28,17.01-2.94,48.17-41.64,69.99-51.53,26.19-11.87,53.69-4.77,73.15-13.98,24.12-11.42,22.89-54.07,46.28-59.23,24.46-5.4,60.92,30.46,79.43,4.59,28.43-39.73-57.16-33.11-74.35-37.94-32.32-9.07-28.03-42.36-80.23-28.44-18.03,4.81-34.05,27.7-51.1,20.13-21.19-9.41-4.86-25.89-3.51-38.52,3-27.99-25.71-27.48-29.6-45.11-6.44-29.19,30.84-37.54,45.52-14.88,20.32,31.37-.76,59.95,67.85,44.46,40.04-9.04,43.32-51.22,61.33-58.73,23.81-9.92,33.44,14.53,27.1,34.26-6.85,21.3-43.52,13.33-43.89,36.33-.49,30.05,46.72,12.5,64.73,17.38,24.77,11.11,169.73,56.83,117.28,100.81-39.32,22.96-32.99-46.07-65.14-38.94-25.32,5.62-5.04,46.7-27.83,58.16-26.12,13.13-65.02-37.12-86.67-10.18-28.11,34.97,38.06,31.69,52.43,39.89,16.19,9.25,17.33,40.17,40.53,37.06,24.94-3.34,4.71-48.01,26.1-57.45,23.54-10.39,88.57,38.64,98.88-18.1,2.92-16.06-8.01-73.32,31.65-46.28,37.58,25.61-18.48,76.05-25.28,104.58-10.68,44.79.21,60.18,2.58,97.56,3.12,49.15-25.27,47.15-32.91,73.36-5.8,19.89,3.15,38.82-5.07,61.89-32.13,49.76-38.88,19.28-44.71,92.14-7.99,31.15-32.11,50.87-34.68,92.67-1.85,30.16,18.01,47.83,18.42,69.7.62,33.23-33.3,56.41-7.6,103.8,20.26,37.34,76.23-20.48,88.42,16.25,15.52,46.76-48.52,26.26-69.22,28.41-39.4,4.1-30.57,62.18-55.82,82.08-20.9,16.47-39.29,2.03-58.86,7.96-15.63,4.73-19.05,38.41-41.83,27.56-20.84-9.93,4.66-46.54-18.88-54.39-12.75-4.25-36.57,2.93-54.32.56-18.98-2.53-41.1-16.04-58.89-17.52-21.09-1.75-72.95,5.93-65.65,37.26,6.85,29.46,46.02,6.32,60.54,4.99,15.76-1.44,65.49,7.96,79.38,15.58,13.98,19.08,88.27,62.94,39.1,85.13-33.66,15.19-35.25-27.5-52.64-44.24-34.67-33.36-54.72-8.63-88.11-11.46-99.19-34.03-4.47,60.18-64.36,57.93-52.52-5.75-6.01-79.5-1.87-103.93,5.38-168.22-63-102.12-66.67-156.11-1.66-71.48,35.46-72.13,63.23-110.46,23.61-32.59-1.47-44.89-2.4-73.4-.73-22.24,10.64-42,9.72-64.41-.57-13.73-44.68-96.24-54.73-111.03-8.46-12.44-32.36-27.58-34.75-38.18-5.9-26.16,14.69-41.57,37.33-27.33,10.96,6.9,91.5,162.9,91.42,177.01-.11,18.39-10.1,38.87-9.56,61.58.64,26.85,14.82,45.21,6.78,75.73-7.55,28.65-65.61,45.99-73.01,90.62-4.34,26.15,22.2,38.9,36.36,16.51,5.71-9.03,20.13-80.5,48.99-50.84,20.23,20.79-20.03,50.04-27.35,67.47-11.52,27.41-3.67,100.76,36.22,75.9,27.19-16.94-24.41-64.72,9.17-95.26ZM891.63,552.73c19.97-3.2,28.6-55.49-.61-54.66-29.54.84-33.51,60.12.61,54.66Z"/>
            <path class="cls-3" d="M651.5,900.94c-21.52,3.04-36.53-10.71-24.68-31.46,2.65-4.64,41.3-27.49,47.61-29.46,16.28-5.08,49.18.96,52.93-20.74,5.58-32.31-44.09-9.22-44.06-42.27.04-46.09,71.38-9.43,77.51,6.39,4.63,11.96-2.99,56.79-11.06,67.76-9.8,13.31-37.16,15.1-53.33,22.84-12.28,5.88-33.76,25.36-44.93,26.94Z"/>
            <path class="cls-3" d="M680.05,973.58c-16.74,1.19-38.98-7.55-38.18-26.97,1.21-29.21,35.45-12.33,55.89-20.24,20.01-7.74,34.75-51.74,59.81-35.47,14.2,9.22,6.46,34.75-2.25,45.76-6.03,7.62-65.15,36.2-75.27,36.92Z"/>
            <path class="cls-3" d="M746.74,1062.28c-10.96,1.88-70.53-16.68-71.45-32.47-1.66-28.5,26.64-20.49,42.12-27.01,12.25-5.16,19.8-26.69,37.73-14.88,16.03,10.55,13.83,70.53-8.41,74.36Z"/>
            <path class="cls-3" d="M638.14,1046.36c-37.83,8.63-50.36-58.96-27.74-68.88,32.1-14.08,58.29,61.91,27.74,68.88Z"/>
          </g>
          <path class="cls-3" d="M742.75,515.53c-32.56,5.08-69.32-70.81-33.26-69.83,18.63.51,71.33,63.88,33.26,69.83Z"/>
          <path class="cls-3" d="M793.46,571.7c-30.44,3.57-42.99-58.19-12.45-62.69,40.64-5.99,35.61,59.97,12.45,62.69Z"/>
          <path class="cls-3" d="M598.72,659.27c-22.65,2.39-43.31-48.2-17.65-54.69,29.87-7.55,44.62,51.85,17.65,54.69Z"/>
        </g>
        <path class="cls-3" d="M880.35,791.3c-4.71-12.13.36-27.72,14.09-30.65,26.38-5.64,32.52,33.32,62.57,31.21,5.83-.41,64.41-15.91,69.61-18.52,24.48-12.31,24.19-43.92,60.72-41.7,15.15.92,44.07,21.39,57.96-.54,16.79-26.51-41.8-38.51-58.34-39.07-62.18-2.11-91.27,104.22-163.36,45.1-54.88-45,47.08-75.48,70.72-106.72,22.5-29.72,19.12-55.91,31.26-79.74,19.45-38.17,75.06,24.56,94.9,35.73,47.35,19.7,38.78,10.79,78.06,44.7,13.91,6.36,43.42.84,48.09,17.57,5.75,20.6-34.57,27.14-48.39,42.64-17.35,19.45-23.5,67.41-47.06,78.48-25.19,11.83-42.56-3.71-64.38,1.07-23.45,5.14-25.59,34.33-45.51,41.34-18.48,6.5-89.44-12.67-72.9,29.15,14.28,36.11,81.81-23.59,107.19,30.15,24.62,59.31-34.04,90.94-84.22,93.92-15.06,4.53-45.98,31.1-59.08,13.23-13.53-18.46,25.66-49.57,41.6-52.22,16.49-2.74,82.93,7.79,71.64-33.35-7.17-26.14-41.47-4.19-53.84-2.11-51.49,8.66-44.44-46.45-63.77-70.23-11.15-13.71-42.54-16.52-47.55-29.42ZM1002.89,678.72c-15.9-16.17-61.29,10.48-47.33,34.75,13.08,22.74,69.41-12.3,47.33-34.75ZM1021.87,670.55c18.93,15.86,35.18-16.28,43.68-21.08,33.14-18.72,80.14,51.59,108.21,30.85,40.76-30.12-52.84-51.63-67.17-60.26-36.39-27.88-49.93-59.56-67.41,2.36-6.39,10.94-34.98,33.33-17.31,48.13Z"/>
        <path class="cls-3" d="M159.17,818.39c-26.11-15.74-5.04-42.85,21.32-38.87,14.97,2.26,54.28,27.4,67.36,37.17,20.38,15.22,53.41,68.52,76.7,23.98,16.99-32.5-34-38-50.64-47.24-25.64-14.24-73.02-60.6-103.54-51.99-12.35,3.48-68.73,45.85-73.83,4.67-4.39-35.45,57.26-22.15,69.27-39.9,7.25-10.71-3.22-28.16-2.72-40.64,1.51-37.07,32.5-53.69,48-81.07,10.94-19.32,1.04-44.34,12.06-60.07,14.54-20.75,53.12-39,71.64-58.57,12.98-13.72,43.07-87.85,61.96-35.96,16.05,44.09-73.99,77.66-95.08,110.32-10.57,16.38-8.07,40.24-17.55,58.56-14.95,28.89-57.84,61.41-41.45,100.94,12.7,30.63,41.67,26.11,61.76,38.98,12.71,8.14,30.79,37.07,44.9,33.13,20.89-5.84,6.57-36.35,7.72-50.73,2-25.02,7.75-75.32,43.93-54,23.79,14.02,78.19,61.22,80.42,89.45,1.49,18.83-2.1,95.78-36.83,80.46-32.91-14.51-.25-58.25-4.99-83.01-16.39-54.72-63.83-54.81-46.43,8.87-12.71,52.11,17.23,53.66,11.81,86.02-4.6,10.37-70.61,54.81-79.51,53.71-15.2-1.88-53.26-55.31-75.21-69.36-18.48-11.82-39.72-7.98-51.05-14.81Z"/>
        <path class="cls-3" d="M1143.12,822.6c-25.36,36.52-41.73,88.38-13.76,127.04,15.09,20.85,58.13,50.76,64.93,66.24,13.62,31.02-31.87,87.33,26.23,94.21,4.41.52,54.72-1.85,58.52-2.78,53.13-13.08.76-110.01,46.83-107.67,46.49,2.37,11.82,68.76,7.42,86.91-7.79,32.15,32.7,41.99,43.3,12.99,12.39-33.89,14.35-78.06-6.75-109.14-43.07-63.43-55.37,6.65-82.97-17.14-27.62-23.81,26.56-42.48,35.55-55.86,15.6-23.2,35.26-73.64,30.93-102.23-3.24-21.39-31.27-62.73-57.14-54.75-40.63,12.54,11.57,44.5,17.24,56.19,12.49,25.79-33.64,127.19-71.21,102.04-29.96-20.06,10.34-41.55,19.66-53.75,47.39-69.87-73-124.22-118.77-42.31ZM1171.04,847.51c10.39-15.52,53.1-57.87,62.61-16.53,7.3,31.71-47.6,31.68-44,69.51,2.82,29.67,61.2,49.43,76.65,91.7,7.74,21.19,13.67,104.43-27.99,85.93-28.3-12.57,8.49-55.23-13.33-86.01-36.51-51.48-111.48-58.62-53.93-144.61Z"/>
        <path class="cls-3" d="M329.06,964.43c70.54,40.74,9.47,83.07,39.25,104.34,30.9,20.6,31.94-46.28,61.02-34.75,49.17,19.51-28.44,90.34-66.15,74.08-97.08-41.59,43.44-129.56-138.02-108.45-16.78,10.42-16.12,28.34-27.68,40.48-15.73,16.51-51.67,4.81-43.97-17.35,3.21-9.24,44.51-59.49,54.27-63.46,11.62-4.72,36.42,5.8,50.12,6.33,18.22.71,57.73-7.01,71.17-1.22Z"/>
        <path class="cls-3" d="M702.53,1401.66c38.28-19.4-17.67-93.03-57.67-86.57-36.28,5.86-27.93,34.75-50.66,44.67-11.91,5.2-28.99-7.5-40.21-4.32-25.54,7.24-18.19,33.79,5.69,39.32,13.27,3.07,28.82-4.61,43.01-3.55,24.72,1.85,72.9,24.1,99.83,10.45ZM666.49,1380.13c-14.57,6.68-49.78-9.62-34.6-27.31,22.59-26.32,67.91,12.04,34.6,27.31Z"/>
        <path class="cls-3" d="M1110.73,1318.79c-22.77,4.49-81.17,1.3-104.51-3.76-18.98-4.11-36.77-17.25-52.46-20.54-16.27-3.41-57.88,5.23-51.84-25.28,9.34-47.11,104.64,13.46,128.9,15.99,27.29,2.86,46.61-11.11,72.09-6.88,28.71,4.77,37.15,34.68,7.83,40.46Z"/>
        <path class="cls-3" d="M22.03,830.35c16.66-47.29,46.91,38.47,70.12,17.88,28.04-24.88-34.65-45.73-5.33-74.88,31.66-31.48,51.53,64.98,48.19,78.37-14.76,59.1-131.33,30.74-112.97-21.37Z"/>
        <path class="cls-3" d="M339.44,930.33c-32.88-37.51,73.08-89.97,61.44-18.81-4.55,27.81-42.66,40.24-61.44,18.81Z"/>
        <path class="cls-3" d="M39.76,802.67c-23.49-8.84-37.18-73.58,1.92-72.44,43.88,1.28,31.01,84.84-1.92,72.44Z"/>
        <path class="cls-3" d="M891.02,944.32c-23.49-8.84-37.18-73.58,1.92-72.44,43.88,1.28,31.01,84.84-1.92,72.44Z"/>
        <path class="cls-3" d="M540.72,1322.4c-26.02,5.15-60.24-59.29-36.55-70.61,34.22-16.35,73.9,63.22,36.55,70.61Z"/>
        <path class="cls-3" d="M1002.47,1169.73c-14.12-22.46,33.82-77.46,52.87-59.39,27.51,26.1-32.61,91.62-52.87,59.39Z"/>
        <path class="cls-3" d="M796.87,1232.2c-55.21,6.38-61.18-64.47-8.87-52.45,31.53,7.25,43.12,48.49,8.87,52.45Z"/>
        <path class="cls-3" d="M886.25,1123.96c-17.37-4.9-37.28-15.09-21.54-34.35,21.28-26.06,72.61,26.93,97.39-30.06,7.69-17.69-.99-58.38,27.65-60.1,49.4-2.97,1.13,84.16-13.79,100.76-19.55,21.75-62.16,31.52-89.71,23.75Z"/>
        <path class="cls-3" d="M139.4,1160.79c-23.65,25.62-45.13-22.68-51.07-40.26-13.8-40.83,31-62.22,44.19-32.29,3.57,8.1.02,19.98,1.77,29.23,2.14,11.31,15.3,32.28,5.11,43.32Z"/>
      </g>
      <g class="cls-4">
        <g>
          <path class="cls-3" d="M1186.72,1393.56c-21.55-6.18-1.27-53.98-28.33-51.94-26.92,2.03-18.13,40.67-33.94,48.6-16.48,8.27-36.01-15.07-57.65-10.66-15,3.05-44.64,18.97-39.45,38.09,10.88,40.11,61.28-27.05,74.56,7.81,14.16,37.17-70.46,21.66-49.58,62.86,15.94,31.44,57.79-4.72,70.07-22.31,9.16-13.12,14.99-49.47,22-54.8,23.07-17.54,40.37,7.34,37.25,30.79-1.4,10.5-50.95,71.77-59.67,78.33-21.12,15.9-49.74.1-59.31,17.95-12.63,23.54,31.38,42.79,48.65,39.99,32.6-5.29,48.94-70.88,77.27-78.44,23.67-6.31,80.56,73.55,129.19,41.34,12.4-8.21,21.61-36.33,35.47-42.9,21.09-10,39.38,19.45,59.9.69,28.5-26.07-41.84-64.8-79.19-35.36-23.02,18.14-24.25,57.6-71.62,38.75-20.87-8.31-50.15-27.9-52.46-51.8-8.14-84.24,158.62-55.45,96.31-163.89-38.45-69.1-96.87,56.91-156.68-62.94-5.41-23.99,32.64-68.26,2.44-79.97-38.14-14.79-20.64,59.01-48.23,75.63-4.69,2.83-66.23,31.14-70.44,32.19-32.49,8.12-65.11-36.93-34.78-53.1,24.33-12.97,48.04,33.43,86.53-15.71,6.44-8.22,17.91-35.05,16.22-45.24-4.01-24.18-31.26-34.81-24.98-59.64,2.82-11.16,53.63-57.54,64.45-58.24,21.82-1.41,32.92,39.2,11.78,50.03-11.03,5.65-44.88-.65-38.04,27.44,8.95,36.76,45.66.12,68.09,18.78,42.48,35.34-29.34,113.78,33.62,123.63,40.86,6.39,83.1-41.4,115.37,17.49,26.43,48.23,1,75.97,67.13,89.29,50.37,10.15,64.35,1,110.36-7.47,43.45-8,81.91,80.81,100.91,81.44,30.87,1.03,31.89-43.01,57.29-58.2,26.74-15.99,129.85-36.39,158.9-27.92,17.88,5.21,56.32,34,58.68,54.47,1.96,16.99-26.93,83.1-39.91,91.2-50.27,31.38-60.39-27.63-87.54-32.43-22.38-3.96-48.85,16.93-73.27,19.36-23.21,2.31-43.89-20.37-64.53-18.25-32.56,3.35-30.03,28.89-52.45,40.48-14.58,7.54-62.41,18.69-74.2,3.41-9.35-12.11-9.15-40.91-31.65-37.68-18.88,2.7-27.9,19.03-20.45,36.41,1.81,4.23,46.17,55.04,49.62,56.56,22.8,10.05,63.36-47.19,78.69-13.17,19.07,42.3-73.11,30.61-75.27,77.24-2.38,51.56,77.16,29.45,64.33,69.15-11.53,35.65-82.2-15.11-95.12-31.24-27.3-34.1,37.83-75.35-29.83-109.54-28.87-14.59-116.8,4.23-82.19,48.42,24.71,31.56,48.76-35.44,71.34-10.6,31.74,34.9-32.56,67.99-64.29,58.07-25.62-8.01-47.79-92.76-101.02-47.24-11.09,9.49-68.04,71.64-77.79,84.38-17.95,23.48-21.39,60.38-56.19,63.96-18.16,1.86-36.4-12.03-55.1-12.23-25.92-.27-74.07,17.74-97.65-2.9-23.54-20.61-17.42-88.1,1.26-111.31,21.27-26.43,39.83,1.38,59.87,10.61,14.9,6.87,57.08,19.05,61.62,33.44,4.04,12.79-16.29,36.55,7.21,47.52,31.51,14.72,31.73-35.4,44.57-50.52,12.61-14.86,86.1-70.09,86.33-84.59.32-19.94-21.62-29.92-38.48-21.42-16.3,8.22-37.9,68.99-68.55,76.32-9.83,2.35-84.66-31.72-91.19-40.28-17.84-23.41,4.41-41.51.76-64.49-1.71-10.76-14.5-50.32-19.17-61.24-23.3-54.51-93.48-18.09-66.1,12.01,10.3,11.32,32.22,2.78,42.23,27.84,6.82,17.08,13.9,85.67-19.63,79.87-35.26-6.1-10.68-48.06-15.99-63.52-11.08-32.27-39.43-2.85-56.05,3.55-28.31,10.9-57.43-.32-74.55,35.22-8.07,16.74-.56,57.1-33.34,47.77-16.61-4.73-18.26-17.73-13.86-32.5,1.62-5.44,31.37-55.52,35.34-58.93,16.79-14.4,140.5-27.85,95.58-62.15-33.19-25.34-86.19,52.12-101.76,15.17-8.21-19.48,45.35-51.62,61.3-55.68,19.72-5.02,80.32,37.05,81.51-3.89,1.3-44.62-65.57-13.42-81.1-42.22-19.75-36.63-9.87-99.1-17.68-139.23-3.79-19.49-29.32-53.07,3.9-60.59,43.3-9.8,33.23,109.4,35.61,132.76,7.17,70.39,43.87,31.46,72.1,60.22,14.93,15.2,9.88,50.56,33.37,47.71,17.93-2.18,17.63-25,25.84-35.13,26.3-32.45,55.49-10.61,84.8-22.65,22.48-9.23,41.31-41,63.3-42.65,37.7-2.82,70.86,109.92,17.3,94.56ZM1828.56,1444.38c94.48-120.24-215.79-66.76-158.92-12.99,22.14,16.9,97.53-46.07,120.5-16.64,8.89,11.39,13.86,45,38.42,29.63ZM1052.89,1693.41c31.53-24.6-74.5-76.01-67.17-21.93,3.99,29.46,48.31,36.65,67.17,21.93ZM1554.25,1456.97c33.3-21.21-6.27-55.81-26.68-69.22-29.23-19.21-60.14,1.7-93.79,2.01-35.52.33-108.71-43.94-119.17,4.59-8.88,41.22,38.58,20.34,57.3,20.89,18.78.56,34.54,15.96,58.05,14.69,21.24-1.14,46.76-16.34,63.86-11.87,28.26,7.38,13.36,68.87,60.41,38.9ZM1296.16,1460.82c29.4-20.3-4.94-66.42-41.21-34.55-24.13,21.21,6.81,58.31,41.21,34.55Z"/>
          <path class="cls-3" d="M1455.58,1311.07c-103.78,26.29-96.31-159.67-8.68-112.63,8.41,4.22,51.11,45.8,53.48,53.41,6.36,20.41-27.36,55.45-44.8,59.22ZM1445.2,1277.21c23.89-5.69,16.01-37.34-2.63-45.74-42.74-19.25-43.54,56.74,2.63,45.74Z"/>
        </g>
        <path class="cls-3" d="M2566.22,1643.65c11.95-27.15-48.44-27.25-58.05-45.91-12.55-24.37,5.17-48.48-10.32-75.38-5.59-9.71-46.73-37.9-58.04-42.96-49.44-22.09-42.48,11.13-80.39,22.47-53.08,15.89-71.52-33.65-28.82-38.05,10.88-1.12,67.84,9.67,45.44-28.59-18.42-31.45-69.84,9.59-91.16,11.67-12.01,1.17-36.21-9.96-50.74-12.45-18.45-3.16-38.74,3.51-55.56-7.96-28.86-19.68-20.16-62.7-36.62-78.21-12.53-11.81-84.63,11.97-68.66-28.85,12.99-33.2,75.5,19.04,80.86-19.88,3.85-27.95-36.38-28.5-55.26-25.98-29.77,3.97-104.24,51.07-114.81,80.14-11.48,31.58,8.45,107.31,46.01,88.42,28.46-14.31-42.52-83.63,3.41-99.59,37.93-13.18,24.57,47.28,27.6,64.41,11.13,62.94,79.57,8.05,93.26,41.82,7.41,18.3-7.92,34.64-12.61,52.46-3.17,12.04-2.14,33.48-5.95,41.69-11.74,25.28-38.55,2.01-56.1,8.89-12.57,4.93-20.95,31.61-35.36,39.1-12.21,6.35-27.02,5.81-38.81,10.94-22.34,9.71-62.36,126.91-89.49,157.04-9.59,10.65-56.91,40.64-21.44,60.58,16.32,9.17,55.38-34.06,64.95-47.09,4.93-6.71,35.36-72.34,39.93-83.6,6.61-16.28,5.22-46.95,22.33-53.47,26.63-10.14,29.66,35.63,25.07,52.06-4.81,17.22-27.07,27.56-35,45.61-17.59,40,5.37,47.52-43,83.9-16.14,12.14-58.69,21.51-37.16,48.05,31.18,38.46,67.23-36,91.47-49.58,48.32-27.08,69.48,24.35,37.7,35.91-12.37,4.5-71.8,4.15-45.83,36.25,24.91,30.79,70.13-3.67,88.2-25.68,19.13-23.29,1.19-36.66,4.41-64.19,1.99-17.02,26.11-66.17,48.53-50.19,27.26,19.44-18.92,49.03-14.02,69.1,4.36,17.85,40.83,19.91,33.72,39.75-4.25,11.87-29.6,12.43-42.82,21.49-2.18,1.49-37.9,32.2-39.71,34.13-35.39,37.77,78.37,36.81,32.12,73.43-36.95,29.25-50.35-24.95-69.07-41.64-2.82-2.52-62.25-34.66-66.52-36.1-24.16-8.13-31.27,2.1-51.01,2.3-23.46.24-32.48-33.36-44.62-47.28-12.03-13.79-30.02-15.45-36.76-35.51-4.12-12.27-6.85-52.26-2.05-64.02,5.45-13.35,25.54-24.21,35.22-36.85,30.17-39.36,42.57-74.95,61.14-118.18,35.25-40.14,15.6-51.38,9.47-95.63-.71-24.09,41.12-49.5,15.09-72.71-29.85-26.62-37.04,37.7-46.15,47.37-12.67,13.45-39.18,10.65-43.3,29.79-9,41.87,56.43-4.05,54.25,41.55-2,41.81-48.73,2.65-70.97,12.97-4.18,1.94-63.23,57.18-67.56,62.53-13.25,16.35-14.73,52.68-42.11,51.11-25.47-1.46-10.62-56.16-1.48-68.96,16.24-22.77,75.12-43.38,93.31-74.91,10.44-18.1,2.21-40.66,13.66-58.58,8.52-13.34,28.03-20.66,40.9-33.4,54.6-54.04,23.07-90.92,58.08-132.98,21.93-26.35,93.86-75.75,127.39-78.13,47.57-3.38,65.2,38.61,105.17-13.59,45.87-59.92,9.91-138.84-44.84-178.08-31.23-22.38-71.24-18.05-84.83-62.96-11.88-39.26,38.06-44.01,22.63-79.66-4.65-10.74-44.04-43.48-17.2-58.98,37.97-21.94,35.64,52.15,58.29,51.8,33.28-.51,23.34-62.3,59.14-54.87,20.84,4.32,11.66,44.71,2.38,56.51-11.49,14.6-126.27,54.48-80.55,93.5,27.05,23.1,39.21-20.95,51.01-33.79,15.31-16.65,59.22-37.54,60.48-2.16,1.12,31.48-70.45,27.22-55.98,65.02,15.34,40.09,56.4-16.93,68.39-27.22,18.3-15.72,99.86-66.03,91.73-11.2-6.55,44.18-27.65,12.82-50.03,21.33-10.35,3.93-22.53,22.45-31.74,30.43-7.86,6.81-20.58,9.22-27.78,17.64-16.52,19.34,1.17,47.51,26.03,33.08,14.93-10.63,58.03-47.95,69.86-65.65,10.16-5.22,20.98,10.12,38.04-.4,23.94-14.76-12.83-63.58,49.75-63.77,56.55-.17-23.47,73.67-29.28,91.29-15.87,12.41-32.86,6.24-52.21,15.75-5.45,2.68-65.15,52.27-67.42,56.12-10.08,17.07.71,41.96.87,60.93.67,79.68-121,102.6-65.11,197.89,12.6,21.49,71.43,32.55,93.97,29.97,31.54-3.61,43.4-30.98,82.02-17.85,22.59,7.68,29.86,28.2,46.35,40.89s43.43,19.33,62.84,31.49c41.71,26.15,79.21,55.84,124.08,79.83,35.06,18.75,71.35,14.77,76,61.23,4.84,48.32-37.98,44.9-69.15,57.22-22.67,8.96-26.49,18.75-56.07,22.98-19.21,2.75-79.95-.07-64.04-33.39,16.78-35.15,66.13,28.05,81.02-5.78ZM2627.39,1623.63c5.32-2.73,10.14-9.29,10.46-15.28,1.28-23.91-28.37-23.53-43.07-32.47-15.1-9.19-43.99-41.95-60.11-25.81-20.48,20.52,24.05,38.65,34.37,46.88,18.04,14.39,30.82,40.77,58.35,26.68ZM2025.02,1564.18c26.04-12.59.04-60.72,38.74-58.75,9.27.47,52.68,28.46,53.63-14.83.8-36.4-83.21-25.62-100.83-9.31-16.14,14.94-36.75,104.74,8.46,82.88Z"/>
        <path class="cls-3" d="M2665.09,962.22c-5.89,6.5-11.43,43.36-18.22,58.08-4.11,8.91-33.5,54.77-40.35,57.58-31.14,12.78-83.14-48.98-105.11-47.19-12.44,1.02-72.37,42.68-69.52,60,6.66,40.48,53-7.84,62.02-10.84,26.38-8.77,67.21,32.82,96.36,37.27,15.92,18.4,20.32,36.68,37.72,55.48,13.35,14.42,76,55.88,79.44,63.06,11.31,23.57-4.45,48.56-29.52,29.56-39.6-30.02-103.39-116.5-142.9-133.76-52.35-22.87-75.36,27.08-129.46-6.16-38.83-23.86-1.59-63.71,20.87-85.08,13.19-12.54,46.89-30.79,53.62-41.68,24.08-38.98-23.79-82.01,52.06-117.5,72.2-33.78,54.04,31.47,95.77,47.45,51.3,19.65,38.15-63.1,93.93-66.55,63.58-3.93,50.45,96.39,6.61,101.81-20.03,2.48-44.52-22.31-63.35-1.54ZM2595.23,1032.37c11.7-3.96,51.73-70.45,24.35-82.44-33.3-14.57-22.94,59.07-56.48,38.81-41.27-24.93,44.12-63.31,2.99-81.17-40.82-17.73-54.28,60.78-44.97,88.21,4.98,14.65,56.81,42.44,74.11,36.58ZM2722.41,932.07c14.73-5.73,15.35-33.86-2.75-35.8-35.74-3.83-32.16,49.37,2.75,35.8Z"/>
        <path class="cls-3" d="M2330.45,1159.2c23.56-4.63,24.86,30.37,37.25,47.71,60.83,85.16,61.01-30.74,102.29-43.55,3.96-1.23,61.83-2.7,68.49-2.18,30.16,2.39,33.21,43.98,2.57,44.7-125.78-43.16-61.27,143.56-165.38,55.63-9.44-8.35-28.45-37.16-33.96-39.05-32.7-11.23-31.94,36.37-7.75,57.29,6.92,5.98,89.49,53.35,94.94,53.3,39.73-.37,48.39-76.72,68.21-90.44,33.96-23.51,113.14,1.23,104.01,49.27-2.96,15.6-19.11,36.93-36.38,25.64-12.63-8.27,2.43-64.5-40.81-50.69-30.85,9.86.73,40.12,1.68,50.88,3.15,35.73-68.51-4.3-64.36,37.92,2.5,25.39,46.44,19.86,62.81,13.01,57.85-56.34,89.82,23.91,24.77,37.8-98,13.47-116.18-34.45-189.9-73.43-17.07-9.03-44.26-11.95-56.58-24.25-13.7-13.69-20.88-53.79-17.53-72.45,2.14-11.92,33.97-74.81,45.63-77.1Z"/>
        <g>
          <path class="cls-3" d="M1315.34,665.2c-3.64-37.68,69.39-24.05,87.84-16.35,16.62,6.93,21.5,37.67,43.33,31.63,29.82-8.26-4.47-50.18-10.45-63.61-3.95-8.86-3.53-20.66-8.24-30.24-9.74-19.8-47.5-32.58-35.44-57.48,14.94-30.86,56.68,25.59,65.49,38.73,65.3,118.57,15.23,71.34,12.71,182.33,5.08,36.91,68.48,100.77,64.65,134.92-1.66,14.79-15.75,27.65-20.18,41.37-11.61,62.28-.8,38.74-39.55,88.22-9.56,21.29-7.22,69.58-35.28,75-50.86,9.82-10.95-46.99-5.03-61.87,5.29-13.3,6.79-29.51,11.85-40.97,7.88-17.88,34.99-25.39,29.03-47.06-3.95-14.35-31.73-14.44-44.82-24.89-25.23-20.13-58.58-75.79-55.84-109.41,4.57-56.18,71.67-32.86,64.77-79.07-2.45-16.38-56.74-45.98-73.3-47.29-12.49-.99-49.07,11.48-51.53-13.96ZM1410.74,814.42c-.38,15.2,61.23,113.41,85.26,81.63,19.39-25.64-21.25-44.19-30.75-63.39-5.72-11.56-3.83-23.27-7.88-32.74-13.03-30.46-45.94-12.67-46.63,14.49Z"/>
          <path class="cls-3" d="M1355.45,603.51c-4.48-35.62,43.84-31.98,44.63-4.16.84,29.74-42.16,23.82-44.63,4.16Z"/>
        </g>
        <path class="cls-3" d="M1668.16,668.21c3.42-25.94,39.46-13.72,55.94-25.66,17.59-12.74,16.95-31.17,39.74-39.44,39.5-14.34,59.98,52.07,91.52,30.03,40.42-28.25-19.03-39.79-33.9-47.41-10.68-5.47-15.25-16.28-28.97-21.09-14.84-5.2-31.71,7.1-48.08,5.13-25.32-3.05-37.43-26.87-68.07-6.51-45.39,30.15-19.82,39.29-24.4,68.56-5.21,33.24-36.69,12.58-55.27,17.53-21.42,5.7-40.35,32.68-60-2.07-23.43-41.43,56.77-27.16,68.42-35.33,19.4-13.6,8.75-42.48,25.26-60.1,19.29-20.59,49.41-10.1,65.75-35.08,4.85-7.42,32.62-94.54,32.11-104.3-3.04-58.02-50.31-36.97-61.4-60.54-11.21-23.83,36.54-35.15,54.36-20.53,8.12,6.67,36.87,43.1,39.87,52.4,1.42,4.39-3.54,87.63-4.98,92.09-6.56,20.42-45.72,38.4-21.93,58.22,21.36,17.8,47.45-20.73,63.66-31.49,29.17-19.35,76.86-18.13,105.08,1.89,15.72,11.15,23.49,29.57,37.66,42.1,26.87,23.75,101.68,25.29,62.23,75.81-30.94,39.62-84.01,77.94-112.93,115.13-24.99,32.13-5.59,64.04-66.84,75.43-77.57,14.42-20.02-90.46-68.1-76.57-34.73,10.04-5.79,48.39-5.74,69.45.11,46.41-54.59,34.5-56.63,63.08,6.2,41.77,80.1-12.3,54.97,91.8-16.25,35.54-51.35,14.2-75.1,36.66-5.28,4.99-33.6,58.63-34.76,65.64-5.33,32.08,33.23,41.91,49.5,16.02,10.88-17.31-4.86-33,17.81-55.03,10.81-10.5,41.74-28.06,52.21-9.71,11.48,20.11-18.34,35.34-27.02,47.42-23.19,32.24,53.35,86.81,5.82,126.99-11.77,9.95-46.95,21.51-61.33,14.5-30.73-14.98-29.41-60.35-44.49-83.18-10.69-16.19-35.45-26.05-35.27-45.19.1-10.08,43.15-100.05,51.18-109.34,26.3-30.44,44.32,1.44,64.76-15.17,32.85-26.7-46.96-59.1-71.18-40.1-4.2,3.3-52.78,81.6-56.65,90.52-8.2,18.86-7.24,78.57-41.21,62.53-36.71-17.33,17.77-73.99,18.08-103.71,97.16-83.98-16.64-102.59,48.14-174.13,11.43-11.07,67.44-29.14,34.72-55.9-23.79-19.46-36.09,13.89-48.55,21.72-26.05,16.37-52.96-34.13-4.11-59.35,62.22-32.11,63.51,43.8,113.4,36.87,21.54-2.99,127.28-51.53,98.11-82.14-31.31-36.13-107.96,102.04-133.37,21.57ZM1686.66,1164.9c24.37,15.4,39.04-20.32,24.74-40.97-29.72-42.94-68.32,13.44-24.74,40.97ZM1631.25,875.79c29.66,21.3,34.91-35.53,44.1-46.14,10.21-11.79,23.94-12.35,33.79-26.68,17.11-24.9-5.35-59.67-28.91-39.72-10.32,8.74-11.92,24.99-21.01,34.86-9.45,10.27-20.71,13.11-30.41,26.77-9.63,13.56-12.37,40.27,2.45,50.92ZM1814.69,773.51c31.77,21.3,31.15-44.29,42.53-58.96,14.27-18.4,37.6-28.22,54.45-44.72,7.95-7.78,43.92-47.25,48.38-54.07,15.04-22.99-23.06-49.04-44.58-28.81-12.39,11.65-11.71,41.78-27.38,58.44-12.78,13.58-29.15,15.75-41.13,24.98-22.04,16.99-66.75,80.01-32.26,103.14ZM1881.59,578.44c77.59-21-70.95-92.92-65.96-38.32,1.7,9.15,58.12,37.98,65.96,38.32Z"/>
        <path class="cls-3" d="M1976.62,588.5v36.5c32.88-11.18,73.83,35.62,98,36.32,21.38.62,89.67-55.47,108.15-22.16,18.98,34.22-62.34,31.98-82.43,50.89-11.47,10.8-38.82,60.4-23.4,73.2,10.3,8.55,105.62.97,130.31,7.88,12.94,3.62,22.73,15.7,36.15,21.22,33.15,13.63,61.93,6.66,76.04,51.72,18.62,59.47-60.01,47.6-71.82,68.86-12.38,22.3,16.37,37.69,36.54,31.33,5.9-1.86,31.49-26.73,42.05-33.54,18.72-12.06,62.66-17.97,48.98-46.82-4.49-9.48-60.05-39.24-29.37-58.73,37.15-23.6,40.76,48.68,76.56,27.01,38.12-23.07-24.6-67.61-52.59-65.82-21.93,1.4-34.28,16.07-63.11,12.23-8.67-1.16-51.44-17.98-56.32-24.47-14.4-19.11,9.05-31.63,17.07-48.19,9.37-19.35,9.21-44.09,31.48-54.57,17.47-8.22,43.32-6.19,45.28,16.93,3.32,39.03-46.44,25.94-53.57,50.48-12.14,41.8,82.82,28.06,85.13-14.19.89-16.29-25.57-69.63,15.46-60.15,42.69,9.87,8.53,70.87,14.16,90.19,24.06,36.49,80.94,11.15,61.09,110.37-12.05,26.68-64.45,1.92-62.52,34.21,12.71,49.56,132.72,4.04,99.3-75.78,13.34-71.05-21.34-43.8-54.37-83.58-8.82-20.03,2.91-41.29-2.81-62.4-5.68-20.97-33.83-44.84-56.16-45.69-56.33-2.16-118.98,21.47-169.6,5.52-32.43-10.22-39.36-25.6-80.83-21.06-24.49,2.68-45.2,24.7-67.58,23.67-32.42-1.49-54.37-51.04-95.28-31.39ZM2212.21,654.6c13.67-12.59,35.74-7.64,35.82,13.43.04,9.35-29.93,59.1-38.06,63.86-10.89,6.38-82.51,15.04-90.11,1.49-17.04-30.36,36.4-25.97,48.09-27.87,43.17-7.02,26.76-34.8,44.26-50.92Z"/>
        <path class="cls-3" d="M1143.12,822.6c-25.36,36.52-41.73,88.38-13.76,127.04,15.09,20.85,58.13,50.76,64.93,66.24,13.62,31.02-31.87,87.33,26.23,94.21,4.41.52,54.72-1.85,58.52-2.78,53.13-13.08.76-110.01,46.83-107.67,46.49,2.37,11.82,68.76,7.42,86.91-7.79,32.15,32.7,41.99,43.3,12.99,12.39-33.89,14.35-78.06-6.75-109.14-43.07-63.43-55.37,6.65-82.97-17.14-27.62-23.81,26.56-42.48,35.55-55.86,15.6-23.2,35.26-73.64,30.93-102.23-3.24-21.39-31.27-62.73-57.14-54.75-40.63,12.54,11.57,44.5,17.24,56.19,12.49,25.79-33.64,127.19-71.21,102.04-29.96-20.06,10.34-41.55,19.66-53.75,47.39-69.87-73-124.22-118.77-42.31ZM1171.04,847.51c10.39-15.52,53.1-57.87,62.61-16.53,7.3,31.71-47.6,31.68-44,69.51,2.82,29.67,61.2,49.43,76.65,91.7,7.74,21.19,13.67,104.43-27.99,85.93-28.3-12.57,8.49-55.23-13.33-86.01-36.51-51.48-111.48-58.62-53.93-144.61Z"/>
        <path class="cls-3" d="M1850.82,1183.38c13.63,21.26,32.14-.57,47.27-4.01,38.93-8.85,121.53,57.17,143.03,42.53,14.97-10.19,5.11-24.74-6.8-32.7-9.94-6.64-69.91-30.47-84.02-35.09-60.98-11.33-55.84-3.02-57.36-65.8-5.09-22.26-20.99-35.8-16.55-61.24,6.86-39.29,36.34-84.6,82.18-73.09,60.1,15.09,33.3,81.61,47.69,101.98,15.34,21.71,96.79,39.22,90.63,72.05-15.83,48.09-79.01-31.29-108.17-40.98-15.94-7.8-62.53-14.44-61.03,13.14,1.32,24.42,41.88,21.7,60.07,29.12,29.08,11.87,62.01,44.78,91.11,48.01,78.33,8.7,58.38-84.35,15.54-114.87-9.75-6.95-26.04-6.98-36.55-14.4-35.64-25.16-14.13-47.5-26.74-74.59-5.18-11.14-34.3-51.02-44.04-56.52-19.77-11.16-97.45,21.94-114.68,9.7-29.41-20.88,24.96-55.04-3.47-78.39-39.85-32.75-36.26,54.28-40.29,63.41-9.92,22.47-66.49,52.9-37.13,82.37,34.58,34.71,31.42-68.29,67.79-52.1,31.06,13.82-8.74,52.44-16.1,65.96-16.73,30.74,15.42,79.51,15.42,116.54,0,18.62-15.37,47.17-7.81,58.97Z"/>
        <path class="cls-3" d="M1997.94,1274.46c-31.47,33.06-72.74-5.6-95.78,2.17-34.83,11.75-78.38,62.68-125.91,33.7-17.1-10.42-89.07-69.99-54.81-88.75,27.5-15.06,41.29,27.55,55.35,41.9,29.33,29.96,125.43,8.5,87.87-23.19-18.52-15.62-55.91,19.46-83.84-30.83-11.66-20.98-11.17-74.64,20.08-77.04,32.2-2.47,11.78,43.98,13.95,54.12,5.88,27.4,42.14,13.32,61.96,23.21,28.15,14.04,25.05,40.73,67.42,37.54,17.97-1.36,51.74-21.51,60.14,5.87,1.49,4.87-2.76,17.46-6.41,21.3Z"/>
        <path class="cls-3" d="M1917.67,905.76c33.83,4.75,24.21-70.84,64.98-93.36,32.69-18.06,29.84,7.44,50.79,12.33,37.19,8.67,23.88-48.08,2.26-62.29-36.46-23.94-64.11,35.07-99.31,33.39-9.97-.47-35.09-16.28-43.94,1.56-14.26,28.75,34.21,22.36,25.65,55.62-1.91,7.4-34.91,47.9-.43,52.74Z"/>
        <path class="cls-3" d="M1333.43,1204.13c-12.43,13.91-31.54,13.75-41.78-2.37-20.11-31.65,61.37-108.54,62.01-52.42.03,2.92-18.28,52.61-20.23,54.79Z"/>
        <path class="cls-3" d="M1914.75,1046.17c23.87,38.51,83.37-27.53,37.4-57.42-27.45-17.84-46.77,42.3-37.4,57.42Z"/>
        <path class="cls-3" d="M1636.88,1358.68c-7.03,14.69-21.72,24.96-36.21,12.65-19.64-16.7,8.75-75.58-21.9-114.22-25.43-32.07-56.69-5.41-72.52-30.65-7.81-12.45,2.45-47.28-2.79-64.77-6.07-20.28-41.3-50.4-6.07-69.02,20.67-10.92,28.85,25.8,41.84,33.27,12.68,7.29,85.34-1.23,70.13,39.28-16.59,44.18-52.45-24.64-74.42-4.19-15.94,14.85-1.39,36.01,13.89,44.19,17.82,9.54,35.25-6.25,52.53,15.14,11.26,29.51,46.37,103.36,35.51,138.32Z"/>
        <path class="cls-3" d="M1429.9,1161.99c-46.58,8.24-49.03-33.9-12.1-45.97,45.84-14.99,51.57,38.99,12.1,45.97Z"/>
        <path class="cls-1" d="M575.22,1183.38c13.63,21.26,32.14-.57,47.27-4.01,38.93-8.85,121.53,57.17,143.03,42.53,14.97-10.19,5.11-24.74-6.8-32.7-9.94-6.64-69.91-30.47-84.02-35.09-60.98-11.33-55.84-3.02-57.36-65.8-5.09-22.26-20.99-35.8-16.55-61.24,6.86-39.29,36.34-84.6,82.18-73.09,60.1,15.09,33.3,81.61,47.69,101.98,15.34,21.71,96.79,39.22,90.63,72.05-15.83,48.09-79.01-31.29-108.17-40.98-15.94-7.8-62.53-14.44-61.03,13.14,1.32,24.42,41.88,21.7,60.07,29.12,29.08,11.87,62.01,44.78,91.11,48.01,78.33,8.7,58.38-84.35,15.54-114.87-9.75-6.95-26.04-6.98-36.55-14.4-35.64-25.16-14.13-47.5-26.74-74.59-5.18-11.14-34.3-51.02-44.04-56.52-19.77-11.16-97.45,21.94-114.68,9.7-29.41-20.88,24.96-55.04-3.47-78.39-39.85-32.75-36.26,54.28-40.29,63.41-9.92,22.47-66.49,52.9-37.13,82.37,34.58,34.71,31.42-68.29,67.79-52.1,31.06,13.82-8.74,52.44-16.1,65.96-16.73,30.74,15.42,79.51,15.42,116.54,0,18.62-15.37,47.17-7.81,58.97Z"/>
        <path class="cls-1" d="M722.35,1274.46c-31.47,33.06-72.74-5.6-95.78,2.17-34.83,11.75-78.38,62.68-125.91,33.7-17.1-10.42-89.07-69.99-54.81-88.75,27.5-15.06,41.29,27.55,55.35,41.9,29.33,29.96,125.43,8.5,87.87-23.19-18.52-15.62-55.91,19.46-83.84-30.83-11.66-20.98-11.17-74.64,20.08-77.04,32.2-2.47,11.78,43.98,13.95,54.12,5.88,27.4,42.14,13.32,61.96,23.21,28.15,14.04,25.05,40.73,67.42,37.54,17.97-1.36,51.74-21.51,60.14,5.87,1.49,4.87-2.76,17.46-6.41,21.3Z"/>
        <path class="cls-1" d="M642.07,905.76c33.83,4.75,24.21-70.84,64.98-93.36,32.69-18.06,29.84,7.44,50.79,12.33,37.19,8.67,23.88-48.08,2.26-62.29-36.46-23.94-64.11,35.07-99.31,33.39-9.97-.47-35.09-16.28-43.94,1.56-14.26,28.75,34.21,22.36,25.65,55.62-1.91,7.4-34.91,47.9-.43,52.74Z"/>
        <path class="cls-1" d="M57.84,1204.13c-12.43,13.91-31.54,13.75-41.78-2.37-20.11-31.65,61.37-108.54,62.01-52.42.03,2.92-18.28,52.61-20.23,54.79Z"/>
        <path class="cls-1" d="M639.16,1046.17c23.87,38.51,83.37-27.53,37.4-57.42-27.45-17.84-46.77,42.3-37.4,57.42Z"/>
        <path class="cls-1" d="M361.29,1358.68c-7.03,14.69-21.72,24.96-36.21,12.65-19.64-16.7,8.75-75.58-21.9-114.22-25.43-32.07-56.69-5.41-72.52-30.65-7.81-12.45,2.45-47.28-2.79-64.77-6.07-20.28-41.3-50.4-6.07-69.02,20.67-10.92,28.85,25.8,41.84,33.27,12.68,7.29,85.34-1.23,70.13,39.28-16.59,44.18-52.45-24.64-74.42-4.19-15.94,14.85-1.39,36.01,13.89,44.19,17.82,9.54,35.25-6.25,52.53,15.14,11.26,29.51,46.37,103.36,35.51,138.32Z"/>
        <path class="cls-1" d="M154.31,1161.99c-46.58,8.24-49.03-33.9-12.1-45.97,45.84-14.99,51.57,38.99,12.1,45.97Z"/>
        <path class="cls-1" d="M1850.82,474.72c13.63,21.26,32.14-.57,47.27-4.01,38.93-8.85,121.53,57.17,143.03,42.53,14.97-10.19,5.11-24.74-6.8-32.7-9.94-6.64-69.91-30.47-84.02-35.09-60.98-11.33-55.84-3.02-57.36-65.8-5.09-22.26-20.99-35.8-16.55-61.24,6.86-39.29,36.34-84.6,82.18-73.09,60.1,15.09,33.3,81.61,47.69,101.98,15.34,21.71,96.79,39.22,90.63,72.05-15.83,48.09-79.01-31.29-108.17-40.98-15.94-7.8-62.53-14.44-61.03,13.14,1.32,24.42,41.88,21.7,60.07,29.12,29.08,11.87,62.01,44.78,91.11,48.01,78.33,8.7,58.38-84.35,15.54-114.87-9.75-6.95-26.04-6.98-36.55-14.4-35.64-25.16-14.13-47.5-26.74-74.59-5.18-11.14-34.3-51.02-44.04-56.52-19.77-11.16-97.45,21.94-114.68,9.7-29.41-20.88,24.96-55.04-3.47-78.39-39.85-32.75-36.26,54.28-40.29,63.41-9.92,22.47-66.49,52.9-37.13,82.37,34.58,34.71,31.42-68.29,67.79-52.1,31.06,13.82-8.74,52.44-16.1,65.96-16.73,30.74,15.42,79.51,15.42,116.54,0,18.62-15.37,47.17-7.81,58.97Z"/>
        <path class="cls-1" d="M1997.94,565.79c-31.47,33.06-72.74-5.6-95.78,2.17-34.83,11.75-78.38,62.68-125.91,33.7-17.1-10.42-89.07-69.99-54.81-88.75,27.5-15.06,41.29,27.55,55.35,41.9,29.33,29.96,125.43,8.5,87.87-23.19-18.52-15.62-55.91,19.46-83.84-30.83-11.66-20.98-11.17-74.64,20.08-77.04,32.2-2.47,11.78,43.98,13.95,54.12,5.88,27.4,42.14,13.32,61.96,23.21,28.15,14.04,25.05,40.73,67.42,37.54,17.97-1.36,51.74-21.51,60.14,5.87,1.49,4.87-2.76,17.46-6.41,21.3Z"/>
        <path class="cls-1" d="M1917.67,197.1c33.83,4.75,24.21-70.84,64.98-93.36,32.69-18.06,29.84,7.44,50.79,12.33,37.19,8.67,23.88-48.08,2.26-62.29-36.46-23.94-64.11,35.07-99.31,33.39-9.97-.47-35.09-16.28-43.94,1.56-14.26,28.75,34.21,22.36,25.65,55.62-1.91,7.4-34.91,47.9-.43,52.74Z"/>
        <path class="cls-1" d="M1333.43,495.47c-12.43,13.91-31.54,13.75-41.78-2.37-20.11-31.65,61.37-108.54,62.01-52.42.03,2.92-18.28,52.61-20.23,54.79Z"/>
        <path class="cls-1" d="M1914.75,337.5c23.87,38.51,83.37-27.53,37.4-57.42-27.45-17.84-46.77,42.3-37.4,57.42Z"/>
        <path class="cls-1" d="M1636.88,650.01c-7.03,14.69-21.72,24.96-36.21,12.65-19.64-16.7,8.75-75.58-21.9-114.22-25.43-32.07-56.69-5.41-72.52-30.65-7.81-12.45,2.45-47.28-2.79-64.77-6.07-20.28-41.3-50.4-6.07-69.02,20.67-10.92,28.85,25.8,41.84,33.27,12.68,7.29,85.34-1.23,70.13,39.28-16.59,44.18-52.45-24.64-74.42-4.19-15.94,14.85-1.39,36.01,13.89,44.19,17.82,9.54,35.25-6.25,52.53,15.14,11.26,29.51,46.37,103.36,35.51,138.32Z"/>
        <path class="cls-1" d="M1429.9,453.33c-46.58,8.24-49.03-33.9-12.1-45.97,45.84-14.99,51.57,38.99,12.1,45.97Z"/>
        <path class="cls-1" d="M575.22,474.72c13.63,21.26,32.14-.57,47.27-4.01,38.93-8.85,121.53,57.17,143.03,42.53,14.97-10.19,5.11-24.74-6.8-32.7-9.94-6.64-69.91-30.47-84.02-35.09-60.98-11.33-55.84-3.02-57.36-65.8-5.09-22.26-20.99-35.8-16.55-61.24,6.86-39.29,36.34-84.6,82.18-73.09,60.1,15.09,33.3,81.61,47.69,101.98,15.34,21.71,96.79,39.22,90.63,72.05-15.83,48.09-79.01-31.29-108.17-40.98-15.94-7.8-62.53-14.44-61.03,13.14,1.32,24.42,41.88,21.7,60.07,29.12,29.08,11.87,62.01,44.78,91.11,48.01,78.33,8.7,58.38-84.35,15.54-114.87-9.75-6.95-26.04-6.98-36.55-14.4-35.64-25.16-14.13-47.5-26.74-74.59-5.18-11.14-34.3-51.02-44.04-56.52-19.77-11.16-97.45,21.94-114.68,9.7-29.41-20.88,24.96-55.04-3.47-78.39-39.85-32.75-36.26,54.28-40.29,63.41-9.92,22.47-66.49,52.9-37.13,82.37,34.58,34.71,31.42-68.29,67.79-52.1,31.06,13.82-8.74,52.44-16.1,65.96-16.73,30.74,15.42,79.51,15.42,116.54,0,18.62-15.37,47.17-7.81,58.97Z"/>
        <path class="cls-1" d="M722.35,565.79c-31.47,33.06-72.74-5.6-95.78,2.17-34.83,11.75-78.38,62.68-125.91,33.7-17.1-10.42-89.07-69.99-54.81-88.75,27.5-15.06,41.29,27.55,55.35,41.9,29.33,29.96,125.43,8.5,87.87-23.19-18.52-15.62-55.91,19.46-83.84-30.83-11.66-20.98-11.17-74.64,20.08-77.04,32.2-2.47,11.78,43.98,13.95,54.12,5.88,27.4,42.14,13.32,61.96,23.21,28.15,14.04,25.05,40.73,67.42,37.54,17.97-1.36,51.74-21.51,60.14,5.87,1.49,4.87-2.76,17.46-6.41,21.3Z"/>
        <path class="cls-1" d="M642.07,197.1c33.83,4.75,24.21-70.84,64.98-93.36,32.69-18.06,29.84,7.44,50.79,12.33,37.19,8.67,23.88-48.08,2.26-62.29-36.46-23.94-64.11,35.07-99.31,33.39-9.97-.47-35.09-16.28-43.94,1.56-14.26,28.75,34.21,22.36,25.65,55.62-1.91,7.4-34.91,47.9-.43,52.74Z"/>
        <path class="cls-1" d="M57.84,495.47c-12.43,13.91-31.54,13.75-41.78-2.37-20.11-31.65,61.37-108.54,62.01-52.42.03,2.92-18.28,52.61-20.23,54.79Z"/>
        <path class="cls-1" d="M639.16,337.5c23.87,38.51,83.37-27.53,37.4-57.42-27.45-17.84-46.77,42.3-37.4,57.42Z"/>
        <path class="cls-1" d="M361.29,650.01c-7.03,14.69-21.72,24.96-36.21,12.65-19.64-16.7,8.75-75.58-21.9-114.22-25.43-32.07-56.69-5.41-72.52-30.65-7.81-12.45,2.45-47.28-2.79-64.77-6.07-20.28-41.3-50.4-6.07-69.02,20.67-10.92,28.85,25.8,41.84,33.27,12.68,7.29,85.34-1.23,70.13,39.28-16.59,44.18-52.45-24.64-74.42-4.19-15.94,14.85-1.39,36.01,13.89,44.19,17.82,9.54,35.25-6.25,52.53,15.14,11.26,29.51,46.37,103.36,35.51,138.32Z"/>
        <path class="cls-1" d="M154.31,453.33c-46.58,8.24-49.03-33.9-12.1-45.97,45.84-14.99,51.57,38.99,12.1,45.97Z"/>
      </g>
      <g class="cls-6">
        <g>
          <path class="cls-3" d="M1186.72-23.77c-21.55-6.18-1.27-53.98-28.33-51.94-26.92,2.03-18.13,40.67-33.94,48.6-16.48,8.27-36.01-15.07-57.65-10.66-15,3.05-44.64,18.97-39.45,38.09,10.88,40.11,61.28-27.05,74.56,7.81,14.16,37.17-70.46,21.66-49.58,62.86,15.94,31.44,57.79-4.72,70.07-22.31,9.16-13.12,14.99-49.47,22-54.8,23.07-17.54,40.37,7.34,37.25,30.79-1.4,10.5-50.95,71.77-59.67,78.33-21.12,15.9-49.74.1-59.31,17.95-12.63,23.54,31.38,42.79,48.65,39.99,32.6-5.29,48.94-70.88,77.27-78.44,23.67-6.31,80.56,73.55,129.19,41.34,12.4-8.21,21.61-36.33,35.47-42.9,21.09-10,39.38,19.45,59.9.69,28.5-26.07-41.84-64.8-79.19-35.36-23.02,18.14-24.25,57.6-71.62,38.75-20.87-8.31-50.15-27.9-52.46-51.8-8.14-84.24,158.62-55.45,96.31-163.89-38.45-69.1-96.87,56.91-156.68-62.94-5.41-23.99,32.64-68.26,2.44-79.97-38.14-14.79-20.64,59.01-48.23,75.63-4.69,2.83-66.23,31.14-70.44,32.19-32.49,8.12-65.11-36.93-34.78-53.1,24.33-12.97,48.04,33.43,86.53-15.71,6.44-8.22,17.91-35.05,16.22-45.24-4.01-24.18-31.26-34.81-24.98-59.64,2.82-11.16,53.63-57.54,64.45-58.24,21.82-1.41,32.92,39.2,11.78,50.03-11.03,5.65-44.88-.65-38.04,27.44,8.95,36.76,45.66.12,68.09,18.78,42.48,35.34-29.34,113.78,33.62,123.63,40.86,6.39,83.1-41.4,115.37,17.49,26.43,48.23,1,75.97,67.13,89.29,50.37,10.15,64.35,1,110.36-7.47,43.45-8,81.91,80.81,100.91,81.44,30.87,1.03,31.89-43.01,57.29-58.2,26.74-15.99,129.85-36.39,158.9-27.92,17.88,5.21,56.32,34,58.68,54.47,1.96,16.99-26.93,83.1-39.91,91.2-50.27,31.38-60.39-27.63-87.54-32.43-22.38-3.96-48.85,16.93-73.27,19.36-23.21,2.31-43.89-20.37-64.53-18.25-32.56,3.35-30.03,28.89-52.45,40.48-14.58,7.54-62.41,18.69-74.2,3.41-9.35-12.11-9.15-40.91-31.65-37.68-18.88,2.7-27.9,19.03-20.45,36.41,1.81,4.23,46.17,55.04,49.62,56.56,22.8,10.05,63.36-47.19,78.69-13.17,19.07,42.3-73.11,30.61-75.27,77.24-2.38,51.56,77.16,29.45,64.33,69.15-11.53,35.65-82.2-15.11-95.12-31.24-27.3-34.1,37.83-75.35-29.83-109.54-28.87-14.59-116.8,4.23-82.19,48.42,24.71,31.56,48.76-35.44,71.34-10.6,31.74,34.9-32.56,67.99-64.29,58.07-25.62-8.01-47.79-92.76-101.02-47.24-11.09,9.49-68.04,71.64-77.79,84.38-17.95,23.48-21.39,60.38-56.19,63.96-18.16,1.86-36.4-12.03-55.1-12.23-25.92-.27-74.07,17.74-97.65-2.9-23.54-20.61-17.42-88.1,1.26-111.31,21.27-26.43,39.83,1.38,59.87,10.61,14.9,6.87,57.08,19.05,61.62,33.44,4.04,12.79-16.29,36.55,7.21,47.52,31.51,14.72,31.73-35.4,44.57-50.52,12.61-14.86,86.1-70.09,86.33-84.59.32-19.94-21.62-29.92-38.48-21.42-16.3,8.22-37.9,68.99-68.55,76.32-9.83,2.35-84.66-31.72-91.19-40.28-17.84-23.41,4.41-41.51.76-64.49-1.71-10.76-14.5-50.32-19.17-61.24-23.3-54.51-93.48-18.09-66.1,12.01,10.3,11.32,32.22,2.78,42.23,27.84,6.82,17.08,13.9,85.67-19.63,79.87-35.26-6.1-10.68-48.06-15.99-63.52-11.08-32.27-39.43-2.85-56.05,3.55-28.31,10.9-57.43-.32-74.55,35.22-8.07,16.74-.56,57.1-33.34,47.77-16.61-4.73-18.26-17.73-13.86-32.5,1.62-5.44,31.37-55.52,35.34-58.93,16.79-14.4,140.5-27.85,95.58-62.15-33.19-25.34-86.19,52.12-101.76,15.17-8.21-19.48,45.35-51.62,61.3-55.68,19.72-5.02,80.32,37.05,81.51-3.89,1.3-44.62-65.57-13.42-81.1-42.22-19.75-36.63-9.87-99.1-17.68-139.23-3.79-19.49-29.32-53.07,3.9-60.59,43.3-9.8,33.23,109.4,35.61,132.76,7.17,70.39,43.87,31.46,72.1,60.22,14.93,15.2,9.88,50.56,33.37,47.71,17.93-2.18,17.63-25,25.84-35.13,26.3-32.45,55.49-10.61,84.8-22.65,22.48-9.23,41.31-41,63.3-42.65,37.7-2.82,70.86,109.92,17.3,94.56ZM1828.56,27.06c94.48-120.24-215.79-66.76-158.92-12.99,22.14,16.9,97.53-46.07,120.5-16.64,8.89,11.39,13.86,45,38.42,29.63ZM1052.89,276.09c31.53-24.6-74.5-76.01-67.17-21.93,3.99,29.46,48.31,36.65,67.17,21.93ZM1554.25,39.65c33.3-21.21-6.27-55.81-26.68-69.22-29.23-19.21-60.14,1.7-93.79,2.01-35.52.33-108.71-43.94-119.17,4.59-8.88,41.22,38.58,20.34,57.3,20.89,18.78.56,34.54,15.96,58.05,14.69,21.24-1.14,46.76-16.34,63.86-11.87,28.26,7.38,13.36,68.87,60.41,38.9ZM1296.16,43.49c29.4-20.3-4.94-66.42-41.21-34.55-24.13,21.21,6.81,58.31,41.21,34.55Z"/>
          <path class="cls-3" d="M1105.26,394.45c-4.84-52.43,52.2,1.48,60.96,3.78,37.78,9.94,33.98-31.97,50.7-51.42,15.93-18.53,116.38-52.45,77.3-89.21-12.33-11.59-35.96-15.09-44.92,2.15-7.07,13.6-4.75,45.83-28.44,47.55-43.89,3.19-5.05-79.94,10-88.88,9.65-5.73,57.92-4.21,69.43-.77,34,10.15,30.06,54.42,47.29,77.73,15.81,21.4,95.3,76.09,93.62,97.81-.64,8.27-6.77,17.38-14.72,20.16-30.26,10.59-31.26-24.19-43.36-40.36-4.84-6.46-55.81-54.41-60.65-55.59-19.11-4.67-33.01,10.53-25.29,29.38,5.97,14.59,69.16,35.81,72.2,69.87,1.42,15.88-19.81,53.63,10.81,57.29,21.25,2.55,37.67-61.08,62.19-25.59,19.55,28.3-40.66,66.28-61.71,65.06-21.78-1.26-29.3-31.18-53.04-40.46-24.26-9.49-121.9-2.42-82.1-48.05,33.17-38.02,50.9,31.56,83.15,16.23,35.79-17.01-26.29-46.17-32.61-51.28-13.22-10.69-17.56-34.29-39.63-28.61-21.8,5.61-34.07,74.1-65.1,78.28-21.61,2.91-83.82-20.54-86.09-45.09Z"/>
          <path class="cls-3" d="M1504.79,533.22c-34.6-16.39,16.05-43.54,24.81-56.86,29.6-72.35,47.69-87.11-41.86-96.46-35.27-12.99-35.17-38.67-50.98-66.92-7.81-13.96-47.34-47.21-16.5-61.17,26.9-12.17,47.08,50.19,58.35,66.13,24.56,34.73,32.37,24.41,66.96,37.21,11.26,4.17,19.18,12.82,32.33,16.88,24.86,7.68,37.32-10.75,61.51,17.09,34.52,39.72,17.09,80.36-9.72,118.84-30.54,43.83-45.91,25.59-86,22.72-10.91-.78-29.76,6.86-38.9,2.53ZM1567.8,505.18c29.09,13.13,83.63-81.86,35.7-98.71-27.14-9.54-21.55,37.33-26.18,47.79-6.99,15.77-37.2,38.43-9.52,50.93Z"/>
        </g>
        <path class="cls-3" d="M2566.22,226.33c11.95-27.15-48.44-27.25-58.05-45.91-12.55-24.37,5.17-48.48-10.32-75.38-5.59-9.71-46.73-37.9-58.04-42.96-49.44-22.09-42.48,11.13-80.39,22.47-53.08,15.89-71.52-33.65-28.82-38.05,10.88-1.12,67.84,9.67,45.44-28.59-18.42-31.45-69.84,9.59-91.16,11.67-12.01,1.17-36.21-9.96-50.74-12.45-18.45-3.16-38.74,3.51-55.56-7.96-28.86-19.68-20.16-62.7-36.62-78.21-12.53-11.81-84.63,11.97-68.66-28.85,12.99-33.2,75.5,19.04,80.86-19.88,3.85-27.95-36.38-28.5-55.26-25.98-29.77,3.97-104.24,51.07-114.81,80.14-11.48,31.58,8.45,107.31,46.01,88.42,28.46-14.31-42.52-83.63,3.41-99.59,37.93-13.18,24.57,47.28,27.6,64.41,11.13,62.94,79.57,8.05,93.26,41.82,7.41,18.3-7.92,34.64-12.61,52.46-3.17,12.04-2.14,33.48-5.95,41.69-11.74,25.28-38.55,2.01-56.1,8.89-12.57,4.93-20.95,31.61-35.36,39.1-12.21,6.35-27.02,5.81-38.81,10.94-22.34,9.71-62.36,126.91-89.49,157.04-9.59,10.65-56.91,40.64-21.44,60.58,16.32,9.17,55.38-34.06,64.95-47.09,4.93-6.71,35.36-72.34,39.93-83.6,6.61-16.28,5.22-46.95,22.33-53.47,26.63-10.14,29.66,35.63,25.07,52.06-4.81,17.22-27.07,27.56-35,45.61-17.59,40,5.37,47.52-43,83.9-16.14,12.14-58.69,21.51-37.16,48.05,31.18,38.46,67.23-36,91.47-49.58,48.32-27.08,69.48,24.35,37.7,35.91-12.37,4.5-71.8,4.15-45.83,36.25,24.91,30.79,70.13-3.67,88.2-25.68,19.13-23.29,1.19-36.66,4.41-64.19,1.99-17.02,26.11-66.17,48.53-50.19,27.26,19.44-18.92,49.03-14.02,69.1,4.36,17.85,40.83,19.91,33.72,39.75-4.25,11.87-29.6,12.43-42.82,21.49-2.18,1.49-37.9,32.2-39.71,34.13-35.39,37.77,78.37,36.81,32.12,73.43-36.95,29.25-50.35-24.95-69.07-41.64-2.82-2.52-62.25-34.66-66.52-36.1-24.16-8.13-31.27,2.1-51.01,2.3-23.46.24-32.48-33.36-44.62-47.28-12.03-13.79-30.02-15.45-36.76-35.51-4.12-12.27-6.85-52.26-2.05-64.02,5.45-13.35,25.54-24.21,35.22-36.85,30.17-39.36,42.57-74.95,61.14-118.18,35.25-40.14,15.6-51.38,9.47-95.63-.71-24.09,41.12-49.5,15.09-72.71-29.85-26.62-37.04,37.7-46.15,47.37-12.67,13.45-39.18,10.65-43.3,29.79-9,41.87,56.43-4.05,54.25,41.55-2,41.81-48.73,2.65-70.97,12.97-4.18,1.94-63.23,57.18-67.56,62.53-13.25,16.35-14.73,52.68-42.11,51.11-25.47-1.46-10.62-56.16-1.48-68.96,16.24-22.77,75.12-43.38,93.31-74.91,10.44-18.1,2.21-40.66,13.66-58.58,8.52-13.34,28.03-20.66,40.9-33.4,54.6-54.04,23.07-90.92,58.08-132.98,21.93-26.35,93.86-75.75,127.39-78.13,47.57-3.38,65.2,38.61,105.17-13.59,45.87-59.92,9.91-138.84-44.84-178.08-31.23-22.38-71.24-18.05-84.83-62.96-11.88-39.26,38.06-44.01,22.63-79.66-4.65-10.74-44.04-43.48-17.2-58.98,37.97-21.94,35.64,52.15,58.29,51.8,33.28-.51,23.34-62.3,59.14-54.87,20.84,4.32,11.66,44.71,2.38,56.51-11.49,14.6-126.27,54.48-80.55,93.5,27.05,23.1,39.21-20.95,51.01-33.79,15.31-16.65,59.22-37.54,60.48-2.16,1.12,31.48-70.45,27.22-55.98,65.02,15.34,40.09,56.4-16.93,68.39-27.22,18.3-15.72,99.86-66.03,91.73-11.2-6.55,44.18-27.65,12.82-50.03,21.33-10.35,3.93-22.53,22.45-31.74,30.43-7.86,6.81-20.58,9.22-27.78,17.64-16.52,19.34,1.17,47.51,26.03,33.08,14.93-10.63,58.03-47.95,69.86-65.65,10.16-5.22,20.98,10.12,38.04-.4,23.94-14.76-12.83-63.58,49.75-63.77,56.55-.17-23.47,73.67-29.28,91.29-15.87,12.41-32.86,6.24-52.21,15.75-5.45,2.68-65.15,52.27-67.42,56.12-10.08,17.07.71,41.96.87,60.93.67,79.68-121,102.6-65.11,197.89,12.6,21.49,71.43,32.55,93.97,29.97,31.54-3.61,43.4-30.98,82.02-17.85,22.59,7.68,29.86,28.2,46.35,40.89,15.97,12.29,43.43,19.33,62.84,31.49,41.71,26.15,79.21,55.84,124.08,79.83,35.06,18.75,71.35,14.77,76,61.23,4.84,48.32-37.98,44.9-69.15,57.22-22.67,8.96-26.49,18.75-56.07,22.98-19.21,2.75-79.95-.07-64.04-33.39,16.78-35.15,66.13,28.05,81.02-5.78ZM2627.39,206.3c5.32-2.73,10.14-9.29,10.46-15.28,1.28-23.91-28.37-23.53-43.07-32.47-15.1-9.19-43.99-41.95-60.11-25.81-20.48,20.52,24.05,38.65,34.37,46.88,18.04,14.39,30.82,40.77,58.35,26.68ZM2025.02,146.85c26.04-12.59.04-60.72,38.74-58.75,9.27.47,52.68,28.46,53.63-14.83.8-36.4-83.21-25.62-100.83-9.31-16.14,14.94-36.75,104.74,8.46,82.88Z"/>
        <path class="cls-3" d="M2529.04,491.76c-8.68,12.68-13.32,31.8,6.19,36.69,44.15,11.06,47.97-107.34,112.38-70.46,12.73,7.29,19.21,25.65,30.9,31.83,17.38,9.18,64.04.45,60.18,32.09-4.46,36.59-80.74-22.78-86.6,29.22-4.89,43.43,45.4,12.52,61.49,12.7,26.84.31,32.45,37.06,4.96,44.09-15.18,3.88-100.95-2.26-108.79-16.23-20.77-37.02,52.44-60.23,34.24-93.7-6.77-12.45-23.18-8.24-32.13-.22-27.96,25.05-14.35,82.18-81.8,61.35-17.04-5.27-57.84-54.34-68.23-12.46-11.75,47.36,75.88,42.57,105.46,53.8,19.19,7.29,30.93,32.24,52.61,40.74,30.28,11.87,29.49-2.77,51.11-4.07,39.87-2.41,21.59,55.68-23.16,53.03-24.24-1.44-106.19-57.16-141.27-68.79-17.18-5.69-77.72-12.83-84.43-18.95-25.66-23.42,51.94-79.78,5.28-91.68-44.11-11.24-26.52,62.92-52.27,77.17-18.71,10.36-77.49,8.57-57.91-24.57,10.07-17.04,50.11-15.19,58.17-56.81,4.97-25.69-19.06-33.25-28.35-52.51-13.54-28.07-5.75-51.76-35.52-76.46-26.73-22.18-116.77-30.54-127.95-47.73-9.45-14.53-.9-60.18-3.43-81.94-1.9-16.36-24.66-63.03,5.28-67.06,46.63-6.28,24.22,90.69,28.49,112.3,7.28,36.83,82.38,29.51,107.35,43.1,20.13,10.96,23.12,44.05,44.84,49.44,33.77,8.38,112.83-15.07,123.29,33.57,1.95,9.05,2.29,22.26-4.38,29.49-28.66,31.05-57.83-50.76-103.01-32.68-45.04,18.02,72.64,82.15,87.97,83.18,19.34,1.3,54.78-41.68,57.33-57.2,2.54-15.44-14.25-66.7-24.77-78.99-34.74-40.6-90.62,16.45-137.04-20.95-23.42-18.87-6.71-41.37,19.14-35.23,14.51,3.45,28.59,29.24,49.85,17.58,34.93-19.15-55.34-64.54-73.29-58.07-10.06,3.63-19.86,24.29-28.61,28.84-14.91,7.76-88.42,1.3-88.49-24.52-.09-34.01,44.77-8.86,56.31-7.9,50.52,4.19,19.29-51.26,48.65-56.89,21.98-4.22,27.44,18.56,40.55,28.96,11.89,9.44,30.75,14.89,44.49,24.92,33.19,24.19,54.09,66.78,98.47,77.96,17.86,4.5,32.95.66,50.91,6.67,21.27,7.12,39.77,38.71,59.98,38.29,25.12-.52,78.17-70.4,79.53-94.7,1-17.96-17.19-42,1.55-53.17,18.27-10.89,29.08,22.49,48.35,24.89,19.65,2.45,94.44-32.54,84.82,20.07-5.68,31.04-67.81.16-95.02,16.5-13.27,7.97-36.24,64.38-50.33,81.13-114.46,119.48-118.65-36.24-163.31-4.97-22.14,16.34,14.09,38.87,20,48.98,18.79,32.18-26.14,50.12-39.99,70.36Z"/>
        <g>
          <path class="cls-3" d="M1315.34,665.2c-3.64-37.68,69.39-24.05,87.84-16.35,16.62,6.93,21.5,37.67,43.33,31.63,29.82-8.26-4.47-50.18-10.45-63.61-3.95-8.86-3.53-20.66-8.24-30.24-9.74-19.8-47.5-32.58-35.44-57.48,14.94-30.86,56.68,25.59,65.49,38.73,65.3,118.57,15.23,71.34,12.71,182.33,5.08,36.91,68.48,100.77,64.65,134.92-1.66,14.79-15.75,27.65-20.18,41.37-11.61,62.28-.8,38.74-39.55,88.22-9.56,21.29-7.22,69.58-35.28,75-50.86,9.82-10.95-46.99-5.03-61.87,5.29-13.3,6.79-29.51,11.85-40.97,7.88-17.88,34.99-25.39,29.03-47.06-3.95-14.35-31.73-14.44-44.82-24.89-25.23-20.13-58.58-75.79-55.84-109.41,4.57-56.18,71.67-32.86,64.77-79.07-2.45-16.38-56.74-45.98-73.3-47.29-12.49-.99-49.07,11.48-51.53-13.96ZM1410.74,814.42c-.38,15.2,61.23,113.41,85.26,81.63,19.39-25.64-21.25-44.19-30.75-63.39-5.72-11.56-3.83-23.27-7.88-32.74-13.03-30.46-45.94-12.67-46.63,14.49Z"/>
          <path class="cls-3" d="M1355.45,603.51c-4.48-35.62,43.84-31.98,44.63-4.16.84,29.74-42.16,23.82-44.63,4.16Z"/>
        </g>
        <path class="cls-3" d="M1976.62,588.8v36.5c32.88-11.18,73.83,35.62,98,36.32,21.38.62,89.67-55.47,108.15-22.16,18.98,34.22-62.34,31.98-82.43,50.89-11.47,10.8-38.82,60.4-23.4,73.2,10.3,8.55,105.62.97,130.31,7.88,12.94,3.62,22.73,15.7,36.15,21.22,33.15,13.63,61.93,6.66,76.04,51.72,18.62,59.47-60.01,47.6-71.82,68.86-12.38,22.3,16.37,37.69,36.54,31.33,5.9-1.86,31.49-26.73,42.05-33.54,18.72-12.06,62.66-17.97,48.98-46.82-4.49-9.48-60.05-39.24-29.37-58.73,37.15-23.6,40.76,48.68,76.56,27.01,38.12-23.07-24.6-67.61-52.59-65.82-21.93,1.4-34.28,16.07-63.11,12.23-8.67-1.16-51.44-17.98-56.32-24.47-14.4-19.11,9.05-31.63,17.07-48.19,9.37-19.35,9.21-44.09,31.48-54.57,17.47-8.22,43.32-6.19,45.28,16.93,3.32,39.03-46.44,25.94-53.57,50.48-12.14,41.8,82.82,28.06,85.13-14.19.89-16.29-25.57-69.63,15.46-60.15,42.69,9.87,8.53,70.87,14.16,90.19,24.06,36.49,80.94,11.15,61.09,110.37-12.05,26.68-64.45,1.92-62.52,34.21,12.71,49.56,132.72,4.04,99.3-75.78,13.34-71.05-21.34-43.8-54.37-83.58-8.82-20.03,2.91-41.29-2.81-62.4-5.68-20.97-33.83-44.84-56.16-45.69-56.33-2.16-118.98,21.47-169.6,5.52-32.43-10.22-39.36-25.6-80.83-21.06-24.49,2.68-45.2,24.7-67.58,23.67-32.42-1.49-54.37-51.04-95.28-31.39ZM2212.21,654.9c13.67-12.59,35.74-7.64,35.82,13.43.04,9.35-29.93,59.1-38.06,63.86-10.89,6.38-82.51,15.04-90.11,1.49-17.04-30.36,36.4-25.97,48.09-27.87,43.17-7.02,26.76-34.8,44.26-50.92Z"/>
        <path class="cls-3" d="M1668.16,668.21c3.42-25.94,39.46-13.72,55.94-25.66,17.59-12.74,16.95-31.17,39.74-39.44,39.5-14.34,59.98,52.07,91.52,30.03,40.42-28.25-19.03-39.79-33.9-47.41-10.68-5.47-15.25-16.28-28.97-21.09-14.84-5.2-31.71,7.1-48.08,5.13-25.32-3.05-37.43-26.87-68.07-6.51-45.39,30.15-19.82,39.29-24.4,68.56-5.21,33.24-36.69,12.58-55.27,17.53-21.42,5.7-40.35,32.68-60-2.07-23.43-41.43,56.77-27.16,68.42-35.33,19.4-13.6,8.75-42.48,25.26-60.1,19.29-20.59,49.41-10.1,65.75-35.08,4.85-7.42,32.62-94.54,32.11-104.3-3.04-58.02-50.31-36.97-61.4-60.54-11.21-23.83,36.54-35.15,54.36-20.53,8.12,6.67,36.87,43.1,39.87,52.4,1.42,4.39-3.54,87.63-4.98,92.09-6.56,20.42-45.72,38.4-21.93,58.22,21.36,17.8,47.45-20.73,63.66-31.49,29.17-19.35,76.86-18.13,105.08,1.89,15.72,11.15,23.49,29.57,37.66,42.1,26.87,23.75,101.68,25.29,62.23,75.81-30.94,39.62-84.01,77.94-112.93,115.13-24.99,32.13-5.59,64.04-66.84,75.43-77.57,14.42-20.02-90.46-68.1-76.57-34.73,10.04-5.79,48.39-5.74,69.45.11,46.41-54.59,34.5-56.63,63.08,6.2,41.77,80.1-12.3,54.97,91.8-16.25,35.54-51.35,14.2-75.1,36.66-5.28,4.99-33.6,58.63-34.76,65.64-5.33,32.08,33.23,41.91,49.5,16.02,10.88-17.31-4.86-33,17.81-55.03,10.81-10.5,41.74-28.06,52.21-9.71,11.48,20.11-18.34,35.34-27.02,47.42-23.19,32.24,53.35,86.81,5.82,126.99-11.77,9.95-46.95,21.51-61.33,14.5-30.73-14.98-29.41-60.35-44.49-83.18-10.69-16.19-35.45-26.05-35.27-45.19.1-10.08,43.15-100.05,51.18-109.34,26.3-30.44,44.32,1.44,64.76-15.17,32.85-26.7-46.96-59.1-71.18-40.1-4.2,3.3-52.78,81.6-56.65,90.52-8.2,18.86-7.24,78.57-41.21,62.53-36.71-17.33,17.77-73.99,18.08-103.71,97.16-83.98-16.64-102.59,48.14-174.13,11.43-11.07,67.44-29.14,34.72-55.9-23.79-19.46-36.09,13.89-48.55,21.72-26.05,16.37-52.96-34.13-4.11-59.35,62.22-32.11,63.51,43.8,113.4,36.87,21.54-2.99,127.28-51.53,98.11-82.14-31.31-36.13-107.96,102.04-133.37,21.57ZM1686.66,1164.9c24.37,15.4,39.04-20.32,24.74-40.97-29.72-42.94-68.32,13.44-24.74,40.97ZM1631.25,875.79c29.66,21.3,34.91-35.53,44.1-46.14,10.21-11.79,23.94-12.35,33.79-26.68,17.11-24.9-5.35-59.67-28.91-39.72-10.32,8.74-11.92,24.99-21.01,34.86-9.45,10.27-20.71,13.11-30.41,26.77-9.63,13.56-12.37,40.27,2.45,50.92ZM1814.69,773.51c31.77,21.3,31.15-44.29,42.53-58.96,14.27-18.4,37.6-28.22,54.45-44.72,7.95-7.78,43.92-47.25,48.38-54.07,15.04-22.99-23.06-49.04-44.58-28.81-12.39,11.65-11.71,41.78-27.38,58.44-12.78,13.58-29.15,15.75-41.13,24.98-22.04,16.99-66.75,80.01-32.26,103.14ZM1881.59,578.44c77.59-21-70.95-92.92-65.96-38.32,1.7,9.15,58.12,37.98,65.96,38.32Z"/>
        <path class="cls-3" d="M1715.11,81.54c23.96,10.67,39.05,38.29,42.65,63.13,9.69,71.55-37.83,23.08-87.19,131.32-4.39,10.53-1.22,56.02-27.98,45.28-17.59-7.06-7.01-30.82-16.06-44.74-10.05-15.48-31.18-23.87-43.33-43.11-23.5-37.24,12.78-42.62,32.14-66.34,19.85-24.31,56.09-104.98,99.76-85.54ZM1708.93,120.58c-27.47-11.32-64.24,46.58-25.55,63.39,30.9,13.43,57.83-50.1,25.55-63.39ZM1648.33,187.33c-22.48-7.83-39.31,26.09-25.42,46.52,30.75,45.2,68.68-31.46,25.42-46.52Z"/>
        <path class="cls-3" d="M2233.83,571.7c-11.63,1.36-17.52,2.04-26.86-5.75-2.53-2.11-36.18-51.57-36.55-54.84-3.96-35.25,61.57-37.01,48.52-79.7-4.49-14.7-36.71-23.88-15.87-46.9,30.93-34.16,38.19,32.63,49.94,38.93,17.03,9.14,34.49-4.98,55.86,11.93,36.97,29.27,26.77,114.78-18.19,125.39-10.99,2.59-46.29,9.71-56.84,10.94ZM2252.09,532.58c70.71-9.6,43.35-97.97.62-69.75-5.16,3.41-36.61,40.33-37.34,46.34-2.57,21.15,19.88,25.7,36.71,23.42Z"/>
        <path class="cls-3" d="M2321.48,135.77c-8.82-16.02-66.8-3.7-64.77-34.81,3.28-50.46,75.28,11.5,91.32,14.58,21,4.04,56.78-29.52,76.55-6.31,26.26,30.82-47.38,33.97-61.49,44.63-15.5,11.72-15.79,27.29-37.44,35.15-14.09,5.11-66.49,8.25-79.84,2.41-12.01-5.25-44.06-38-49.9-50.38-15.17-32.17-2.46-116.05,35.46-80.75,13.74,12.79-3.09,30.51-6.01,43.16-14.83,64.26,120.62,76.8,96.13,32.31Z"/>
        <path class="cls-3" d="M1770.99,359.77c-.95-22.95,27.22-21.34,33.61-36.99,8.01-19.61-4.17-38.69-1.35-57.7,3.77-25.42,94.09-121,101.7-67.63,3.28,22.95-31.83,32.02-45.17,44.72-40.43,38.5-5.96,87.56-23.92,119.99-12.88,23.25-63.61,28.04-64.87-2.4Z"/>
        <path class="cls-3" d="M2080.66,256.62c-3.17-18.11-9.33-72.11,1.48-85.58,12.42-15.47,97.09-45.73,93.75-6.2-2.39,28.35-60.46,8.51-64.54,44.19-1.18,10.35,6.49,40.67,10.16,51.36,4.92,14.31,41.25,62.02-2.12,58.39-23.35-1.95-35.44-43.39-38.73-62.17Z"/>
        <path class="cls-3" d="M2442.51,208.6c-42.24,9.87-63.65-52.72-10.11-46.11,31.75,3.92,36.95,39.84,10.11,46.11Z"/>
        <path class="cls-3" d="M1828.78,460.63c-42.24,9.87-63.65-52.72-10.11-46.11,31.75,3.92,36.95,39.84,10.11,46.11Z"/>
      </g>
      <g class="cls-5">
        <g>
          <path class="cls-3" d="M1186.72-23.77c-21.55-6.18-1.27-53.98-28.33-51.94-26.92,2.03-18.13,40.67-33.94,48.6-16.48,8.27-36.01-15.07-57.65-10.66-15,3.05-44.64,18.97-39.45,38.09,10.88,40.11,61.28-27.05,74.56,7.81,14.16,37.17-70.46,21.66-49.58,62.86,15.94,31.44,57.79-4.72,70.07-22.31,9.16-13.12,14.99-49.47,22-54.8,23.07-17.54,40.37,7.34,37.25,30.79-1.4,10.5-50.95,71.77-59.67,78.33-21.12,15.9-49.74.1-59.31,17.95-12.63,23.54,31.38,42.79,48.65,39.99,32.6-5.29,48.94-70.88,77.27-78.44,23.67-6.31,80.56,73.55,129.19,41.34,12.4-8.21,21.61-36.33,35.47-42.9,21.09-10,39.38,19.45,59.9.69,28.5-26.07-41.84-64.8-79.19-35.36-23.02,18.14-24.25,57.6-71.62,38.75-20.87-8.31-50.15-27.9-52.46-51.8-8.14-84.24,158.62-55.45,96.31-163.89-38.45-69.1-96.87,56.91-156.68-62.94-5.41-23.99,32.64-68.26,2.44-79.97-38.14-14.79-20.64,59.01-48.23,75.63-4.69,2.83-66.23,31.14-70.44,32.19-32.49,8.12-65.11-36.93-34.78-53.1,24.33-12.97,48.04,33.43,86.53-15.71,6.44-8.22,17.91-35.05,16.22-45.24-4.01-24.18-31.26-34.81-24.98-59.64,2.82-11.16,53.63-57.54,64.45-58.24,21.82-1.41,32.92,39.2,11.78,50.03-11.03,5.65-44.88-.65-38.04,27.44,8.95,36.76,45.66.12,68.09,18.78,42.48,35.34-29.34,113.78,33.62,123.63,40.86,6.39,83.1-41.4,115.37,17.49,26.43,48.23,1,75.97,67.13,89.29,50.37,10.15,64.35,1,110.36-7.47,43.45-8,81.91,80.81,100.91,81.44,30.87,1.03,31.89-43.01,57.29-58.2,26.74-15.99,129.85-36.39,158.9-27.92,17.88,5.21,56.32,34,58.68,54.47,1.96,16.99-26.93,83.1-39.91,91.2-50.27,31.38-60.39-27.63-87.54-32.43-22.38-3.96-48.85,16.93-73.27,19.36-23.21,2.31-43.89-20.37-64.53-18.25-32.56,3.35-30.03,28.89-52.45,40.48-14.58,7.54-62.41,18.69-74.2,3.41-9.35-12.11-9.15-40.91-31.65-37.68-18.88,2.7-27.9,19.03-20.45,36.41,1.81,4.23,46.17,55.04,49.62,56.56,22.8,10.05,63.36-47.19,78.69-13.17,19.07,42.3-73.11,30.61-75.27,77.24-2.38,51.56,77.16,29.45,64.33,69.15-11.53,35.65-82.2-15.11-95.12-31.24-27.3-34.1,37.83-75.35-29.83-109.54-28.87-14.59-116.8,4.23-82.19,48.42,24.71,31.56,48.76-35.44,71.34-10.6,31.74,34.9-32.56,67.99-64.29,58.07-25.62-8.01-47.79-92.76-101.02-47.24-11.09,9.49-68.04,71.64-77.79,84.38-17.95,23.48-21.39,60.38-56.19,63.96-18.16,1.86-36.4-12.03-55.1-12.23-25.92-.27-74.07,17.74-97.65-2.9-23.54-20.61-17.42-88.1,1.26-111.31,21.27-26.43,39.83,1.38,59.87,10.61,14.9,6.87,57.08,19.05,61.62,33.44,4.04,12.79-16.29,36.55,7.21,47.52,31.51,14.72,31.73-35.4,44.57-50.52,12.61-14.86,86.1-70.09,86.33-84.59.32-19.94-21.62-29.92-38.48-21.42-16.3,8.22-37.9,68.99-68.55,76.32-9.83,2.35-84.66-31.72-91.19-40.28-17.84-23.41,4.41-41.51.76-64.49-1.71-10.76-14.5-50.32-19.17-61.24-23.3-54.51-93.48-18.09-66.1,12.01,10.3,11.32,32.22,2.78,42.23,27.84,6.82,17.08,13.9,85.67-19.63,79.87-35.26-6.1-10.68-48.06-15.99-63.52-11.08-32.27-39.43-2.85-56.05,3.55-28.31,10.9-57.43-.32-74.55,35.22-8.07,16.74-.56,57.1-33.34,47.77-16.61-4.73-18.26-17.73-13.86-32.5,1.62-5.44,31.37-55.52,35.34-58.93,16.79-14.4,140.5-27.85,95.58-62.15-33.19-25.34-86.19,52.12-101.76,15.17-8.21-19.48,45.35-51.62,61.3-55.68,19.72-5.02,80.32,37.05,81.51-3.89,1.3-44.62-65.57-13.42-81.1-42.22-19.75-36.63-9.87-99.1-17.68-139.23-3.79-19.49-29.32-53.07,3.9-60.59,43.3-9.8,33.23,109.4,35.61,132.76,7.17,70.39,43.87,31.46,72.1,60.22,14.93,15.2,9.88,50.56,33.37,47.71,17.93-2.18,17.63-25,25.84-35.13,26.3-32.45,55.49-10.61,84.8-22.65,22.48-9.23,41.31-41,63.3-42.65,37.7-2.82,70.86,109.92,17.3,94.56ZM1828.56,27.06c94.48-120.24-215.79-66.76-158.92-12.99,22.14,16.9,97.53-46.07,120.5-16.64,8.89,11.39,13.86,45,38.42,29.63ZM1052.89,276.09c31.53-24.6-74.5-76.01-67.17-21.93,3.99,29.46,48.31,36.65,67.17,21.93ZM1554.25,39.65c33.3-21.21-6.27-55.81-26.68-69.22-29.23-19.21-60.14,1.7-93.79,2.01-35.52.33-108.71-43.94-119.17,4.59-8.88,41.22,38.58,20.34,57.3,20.89,18.78.56,34.54,15.96,58.05,14.69,21.24-1.14,46.76-16.34,63.86-11.87,28.26,7.38,13.36,68.87,60.41,38.9ZM1296.16,43.49c29.4-20.3-4.94-66.42-41.21-34.55-24.13,21.21,6.81,58.31,41.21,34.55Z"/>
          <path class="cls-3" d="M1105.26,394.45c-4.84-52.43,52.2,1.48,60.96,3.78,37.78,9.94,33.98-31.97,50.7-51.42,15.93-18.53,116.38-52.45,77.3-89.21-12.33-11.59-35.96-15.09-44.92,2.15-7.07,13.6-4.75,45.83-28.44,47.55-43.89,3.19-5.05-79.94,10-88.88,9.65-5.73,57.92-4.21,69.43-.77,34,10.15,30.06,54.42,47.29,77.73,15.81,21.4,95.3,76.09,93.62,97.81-.64,8.27-6.77,17.38-14.72,20.16-30.26,10.59-31.26-24.19-43.36-40.36-4.84-6.46-55.81-54.41-60.65-55.59-19.11-4.67-33.01,10.53-25.29,29.38,5.97,14.59,69.16,35.81,72.2,69.87,1.42,15.88-19.81,53.63,10.81,57.29,21.25,2.55,37.67-61.08,62.19-25.59,19.55,28.3-40.66,66.28-61.71,65.06-21.78-1.26-29.3-31.18-53.04-40.46-24.26-9.49-121.9-2.42-82.1-48.05,33.17-38.02,50.9,31.56,83.15,16.23,35.79-17.01-26.29-46.17-32.61-51.28-13.22-10.69-17.56-34.29-39.63-28.61-21.8,5.61-34.07,74.1-65.1,78.28-21.61,2.91-83.82-20.54-86.09-45.09Z"/>
          <path class="cls-3" d="M1504.79,533.22c-34.6-16.39,16.05-43.54,24.81-56.86,29.6-72.35,47.69-87.11-41.86-96.46-35.27-12.99-35.17-38.67-50.98-66.92-7.81-13.96-47.34-47.21-16.5-61.17,26.9-12.17,47.08,50.19,58.35,66.13,24.56,34.73,32.37,24.41,66.96,37.21,11.26,4.17,19.18,12.82,32.33,16.88,24.86,7.68,37.32-10.75,61.51,17.09,34.52,39.72,17.09,80.36-9.72,118.84-30.54,43.83-45.91,25.59-86,22.72-10.91-.78-29.76,6.86-38.9,2.53ZM1567.8,505.18c29.09,13.13,83.63-81.86,35.7-98.71-27.14-9.54-21.55,37.33-26.18,47.79-6.99,15.77-37.2,38.43-9.52,50.93Z"/>
        </g>
        <path class="cls-3" d="M15.04,226.33c11.95-27.15-48.44-27.25-58.05-45.91-12.55-24.37,5.17-48.48-10.32-75.38-5.59-9.71-46.73-37.9-58.04-42.96-49.44-22.09-42.48,11.13-80.39,22.47-53.08,15.89-71.52-33.65-28.82-38.05,10.88-1.12,67.84,9.67,45.44-28.59-18.42-31.45-69.84,9.59-91.16,11.67-12.01,1.17-36.21-9.96-50.74-12.45-18.45-3.16-38.74,3.51-55.56-7.96-28.86-19.68-20.16-62.7-36.62-78.21-12.53-11.81-84.63,11.97-68.66-28.85,12.99-33.2,75.5,19.04,80.86-19.88,3.85-27.95-36.38-28.5-55.26-25.98-29.77,3.97-104.24,51.07-114.81,80.14-11.48,31.58,8.45,107.31,46.01,88.42,28.46-14.31-42.52-83.63,3.41-99.59,37.93-13.18,24.57,47.28,27.6,64.41,11.13,62.94,79.57,8.05,93.26,41.82,7.41,18.3-7.92,34.64-12.61,52.46-3.17,12.04-2.14,33.48-5.95,41.69-11.74,25.28-38.55,2.01-56.1,8.89-12.57,4.93-20.95,31.61-35.36,39.1-12.21,6.35-27.02,5.81-38.81,10.94-22.34,9.71-62.36,126.91-89.49,157.04-9.59,10.65-56.91,40.64-21.44,60.58,16.32,9.17,55.38-34.06,64.95-47.09,4.93-6.71,35.36-72.34,39.93-83.6,6.61-16.28,5.22-46.95,22.33-53.47,26.63-10.14,29.66,35.63,25.07,52.06-4.81,17.22-27.07,27.56-35,45.61-17.59,40,5.37,47.52-43,83.9-16.14,12.14-58.69,21.51-37.16,48.05,31.18,38.46,67.23-36,91.47-49.58,48.32-27.08,69.48,24.35,37.7,35.91-12.37,4.5-71.8,4.15-45.83,36.25,24.91,30.79,70.13-3.67,88.2-25.68,19.13-23.29,1.19-36.66,4.41-64.19,1.99-17.02,26.11-66.17,48.53-50.19,27.26,19.44-18.92,49.03-14.02,69.1,4.36,17.85,40.83,19.91,33.72,39.75-4.25,11.87-29.6,12.43-42.82,21.49-2.18,1.49-37.9,32.2-39.71,34.13-35.39,37.77,78.37,36.81,32.12,73.43-36.95,29.25-50.35-24.95-69.07-41.64-2.82-2.52-62.25-34.66-66.52-36.1-24.16-8.13-31.27,2.1-51.01,2.3-23.46.24-32.48-33.36-44.62-47.28-12.03-13.79-30.02-15.45-36.76-35.51-4.12-12.27-6.85-52.26-2.05-64.02,5.45-13.35,25.54-24.21,35.22-36.85,30.17-39.36,42.57-74.95,61.14-118.18,35.25-40.14,15.6-51.38,9.47-95.63-.71-24.09,41.12-49.5,15.09-72.71-29.85-26.62-37.04,37.7-46.15,47.37-12.67,13.45-39.18,10.65-43.3,29.79-9,41.87,56.43-4.05,54.25,41.55-2,41.81-48.73,2.65-70.97,12.97-4.18,1.94-63.23,57.18-67.56,62.53-13.25,16.35-14.73,52.68-42.11,51.11-25.47-1.46-10.62-56.16-1.48-68.96,16.24-22.77,75.12-43.38,93.31-74.91,10.44-18.1,2.21-40.66,13.66-58.58,8.52-13.34,28.03-20.66,40.9-33.4,54.6-54.04,23.07-90.92,58.08-132.98,21.93-26.35,93.86-75.75,127.39-78.13,47.57-3.38,65.2,38.61,105.17-13.59,45.87-59.92,9.91-138.84-44.84-178.08-31.23-22.38-71.24-18.05-84.83-62.96-11.88-39.26,38.06-44.01,22.63-79.66-4.65-10.74-44.04-43.48-17.2-58.98,37.97-21.94,35.64,52.15,58.29,51.8,33.28-.51,23.34-62.3,59.14-54.87,20.84,4.32,11.66,44.71,2.38,56.51-11.49,14.6-126.27,54.48-80.55,93.5,27.05,23.1,39.21-20.95,51.01-33.79,15.31-16.65,59.22-37.54,60.48-2.16,1.12,31.48-70.45,27.22-55.98,65.02,15.34,40.09,56.4-16.93,68.39-27.22,18.3-15.72,99.86-66.03,91.73-11.2-6.55,44.18-27.65,12.82-50.03,21.33-10.35,3.93-22.53,22.45-31.74,30.43-7.86,6.81-20.58,9.22-27.78,17.64-16.52,19.34,1.17,47.51,26.03,33.08,14.93-10.63,58.03-47.95,69.86-65.65,10.16-5.22,20.98,10.12,38.04-.4,23.94-14.76-12.83-63.58,49.75-63.77,56.55-.17-23.47,73.67-29.28,91.29-15.87,12.41-32.86,6.24-52.21,15.75-5.45,2.68-65.15,52.27-67.42,56.12-10.08,17.07.71,41.96.87,60.93.67,79.68-121,102.6-65.11,197.89,12.6,21.49,71.43,32.55,93.97,29.97,31.54-3.61,43.4-30.98,82.02-17.85C-163.39-20.46-156.13.05-139.64,12.75c15.97,12.29,43.43,19.33,62.84,31.49C-35.08,70.39,2.42,100.08,47.29,124.07c35.06,18.75,71.35,14.77,76,61.23,4.84,48.32-37.98,44.9-69.15,57.22-22.67,8.96-26.49,18.75-56.07,22.98-19.21,2.75-79.95-.07-64.04-33.39,16.78-35.15,66.13,28.05,81.02-5.78ZM76.21,206.3c5.32-2.73,10.14-9.29,10.46-15.28,1.28-23.91-28.37-23.53-43.07-32.47-15.1-9.19-43.99-41.95-60.11-25.81-20.48,20.52,24.05,38.65,34.37,46.88,18.04,14.39,30.82,40.77,58.35,26.68ZM-526.16,146.85c26.04-12.59.04-60.72,38.74-58.75,9.27.47,52.68,28.46,53.63-14.83.8-36.4-83.21-25.62-100.83-9.31-16.14,14.94-36.75,104.74,8.46,82.88Z"/>
        <path class="cls-3" d="M292.58,24.16c-46.42,60.62,51.54,41.99,31.04,94.94-14.51,30.96-48.07-19.41-61.34-23.47-14.22-4.34-37.71,3.25-44.32-13.11-9.12-22.6,22.12-26.53,33.09-41.22,37.04-49.58,21.59-71.69,30.36-120.87,8.5-47.67,72.39-21.11,104.16-47.07,44.81-36.62-34.22-82.73,20.73-96.59,49.71-12.55,29.08,49.64,28.64,72.93-.6,31.3,19.52,63.2,38.17,87.24,19.76,25.48,59.26,41.9,41.25,78.24-13.45,27.13-53.9,16.21-58.08,72.27-3.55,47.56,29.28,42.51,34.99,71.22,2.86,14.38-2.61,42.18-21.03,41.63-32.07-.97-.62-74.02-67.82-64.98-38.25,5.14-35.44,64.46-94.96,71.86-41.27,5.13-38.77-25.02-67.96-36.61-18.48-7.34-43.11-2.73-58.71-14.29-14.71-10.9-20.23-43.17-32.91-58.34-11.72-14.02-43.56-28.8-61.68-29.77-17.96-.97-60.98,16.07-48.04-25.99,12.42-40.37,44.15-8.66,63.27-2.08,32.92,11.33,53.65,4.82,78.11,39.22,24.39,52.74,20.44,44.18,74.83,58.15,29.95,12.8,34.46,48.02,73.59,22.44,8.77-5.74,30.45-30.16,32.88-40.1,5.29-21.61-34.76-124.95-68.24-95.64ZM412.26,108.82c23.33-4.47,18.99-41.81,12.88-58.72-9.35-25.87-46.38-54.99-58.34-79.85-7.04-14.64-5.9-32.35-12.59-42.17-11.44-16.8-34.15-9.62-38.53,8.37-11.94,48.98,45.72,69.8,64.16,109.41,10.06,21.62,2.89,68.62,32.42,62.96ZM461.86,20.06c45.65-10.48-14.3-58.94-22.19-70.52-12.49-18.34-17.83-63.65-45.67-52.11-18.67,7.75-9.72,29.19-3.75,41.55,3.04,6.29,40.77,65.14,44.83,69.89,8.29,9.7,12.9,14.37,26.78,11.19Z"/>
        <path class="cls-3" d="M573.28,140.48c-28.17-20.85,7.23-47.27,17.15-64.66,10.11-17.71,8.17-36.97,23.13-52.17,43.94-44.64,70.93,15.32,99.85.63,15.37-7.81,45.79-42.5,46.33-60.08.24-8-41.35-77.98-48.75-82.58-8.51-5.28-49.06.13-59.3,3.28-17.1,5.26-48.25,31.64-62.66,9.85-13.38-20.23,24.92-41.41,40.86-46.23,26.83-8.1,61.87,15.53,79.25-11.17,6.21-9.54-1.65-32.57,17.78-35.46,29.02-4.32,14.59,45.22,18.51,59.84,3.84,14.33,31.72,65.47,43.64,72.65,11.97,7.22,34.25-3.51,41.42,15.59,9.06,24.13-31.63,27.88-42.98,37.93-13.86,12.27-14.12,35.26-26.83,48.43-13.16,13.64-30.22,13.26-42,26.91-15.76,18.27-10.37,82.64-58.09,70.39-44.13-11.33,10.12-44.01,17.69-52.32,21.9-24.07-15.17-54.23-42.21-24.93-31.4,35.38-4.09,105.6-62.79,84.09Z"/>
        <path class="cls-3" d="M-22.15,491.76c-8.68,12.68-13.32,31.8,6.19,36.69,44.15,11.06,47.97-107.34,112.38-70.46,12.73,7.29,19.21,25.65,30.9,31.83,17.38,9.18,64.04.45,60.18,32.09-4.46,36.59-80.74-22.78-86.6,29.22-4.89,43.43,45.4,12.52,61.49,12.7,26.84.31,32.45,37.06,4.96,44.09-15.18,3.88-100.95-2.26-108.79-16.23-20.77-37.02,52.44-60.23,34.24-93.7-6.77-12.45-23.18-8.24-32.13-.22-27.96,25.05-14.35,82.18-81.8,61.35-17.04-5.27-57.84-54.34-68.23-12.46-11.75,47.36,75.88,42.57,105.46,53.8,19.19,7.29,30.93,32.24,52.61,40.74,30.28,11.87,29.49-2.77,51.11-4.07,39.87-2.41,21.59,55.68-23.16,53.03-24.24-1.44-106.19-57.16-141.27-68.79-17.18-5.69-77.72-12.83-84.43-18.95-25.66-23.42,51.94-79.78,5.28-91.68-44.11-11.24-26.52,62.92-52.27,77.17-18.71,10.36-77.49,8.57-57.91-24.57,10.07-17.04,50.11-15.19,58.17-56.81,4.97-25.69-19.06-33.25-28.35-52.51-13.54-28.07-5.75-51.76-35.52-76.46-26.73-22.18-116.77-30.54-127.95-47.73-9.45-14.53-.9-60.18-3.43-81.94-1.9-16.36-24.66-63.03,5.28-67.06,46.63-6.28,24.22,90.69,28.49,112.3,7.28,36.83,82.38,29.51,107.35,43.1,20.13,10.96,23.12,44.05,44.84,49.44,33.77,8.38,112.83-15.07,123.29,33.57,1.95,9.05,2.29,22.26-4.38,29.49-28.66,31.05-57.83-50.76-103.01-32.68-45.04,18.02,72.64,82.15,87.97,83.18,19.34,1.3,54.78-41.68,57.33-57.2,2.54-15.44-14.25-66.7-24.77-78.99-34.74-40.6-90.62,16.45-137.04-20.95-23.42-18.87-6.71-41.37,19.14-35.23,14.51,3.45,28.59,29.24,49.85,17.58,34.93-19.15-55.34-64.54-73.29-58.07-10.06,3.63-19.86,24.29-28.61,28.84-14.91,7.76-88.42,1.3-88.49-24.52-.09-34.01,44.77-8.86,56.31-7.9,50.52,4.19,19.29-51.26,48.65-56.89,21.98-4.22,27.44,18.56,40.55,28.96,11.89,9.44,30.75,14.89,44.49,24.92,33.19,24.19,54.09,66.78,98.47,77.96,17.86,4.5,32.95.66,50.91,6.67,21.27,7.12,39.77,38.71,59.98,38.29,25.12-.52,78.17-70.4,79.53-94.7,1-17.96-17.19-42,1.55-53.17,18.27-10.89,29.08,22.49,48.35,24.89,19.65,2.45,94.44-32.54,84.82,20.07-5.68,31.04-67.81.16-95.02,16.5-13.27,7.97-36.24,64.38-50.33,81.13-114.46,119.48-118.65-36.24-163.31-4.97-22.14,16.34,14.09,38.87,20,48.98,18.79,32.18-26.14,50.12-39.99,70.36Z"/>
        <g>
          <g>
            <path class="cls-3" d="M541.35,977.87c55.3-27.84,5.21,64,43.8,90.88,31.64,22.43,59.22,3,87.58,7.11,76.2,35.2,88.51,67.51,132.28-36.47,6.11-33.7-26.64-51.6-18.87-86.77,3.25-14.69,15.72-24.84,15.74-43.81.02-18.86-18.01-32.24-17.22-53.67.35-9.45,12.21-74.67,14.93-84.54,3.39-12.32,19.79-25.85,24.09-39.83,16.3-53.07-27.7-45.92-33.52-72.46-4.36-19.9-1.17-91.52,36.24-67.75,23.55,14.96-16.15,59.39,9.38,72.24,33.71,16.97,38-46.23,35.48-64.68-2.69-19.73-33.12-35.62-35.43-69.25-4.52-65.67,64.7-47.16,68.88-88.37,1.26-12.47-2.55-22.48-15.5-25.83-36.69-9.49-40.42,29.47-59.74,48.92-39.74,40.02-49.8-6.9-75.02-27.68-48.01-53.28-246.85-15.66-201.36,73.8,11.61,21.25,62.73,42.67,85.56,40.33,29.5-3.03,21.33-48.04-6.57-50.25-14.15-1.12-35.19,16.11-46.74-3.25-15.3-25.64,31.11-40.11,48.99-44.68,45.66-11.66,28.47,43.04,52.23,71.8,20.53,24.84,56.37,24.79,68.47,69.99,10.64,39.76-7.15,47.28-11.17,75.8-4.35,30.83,24.38,22.08,39.1,34.02,16.91,13.7,6.16,40.7-14.58,39.65-3.47-.17-61.15-25.76-63.42-28.39-13.96-16.2,13.81-62.1,15.64-83.94,2.06-24.63-16.72-72.38-46-70.26-34.64,2.5-3.13,38.75.92,48.13,14.4,33.32-3.95,47.8-8.84,78.35-5.64,35.18-5.32,81.93-14.1,116.35-9.47,37.13-78.41,33.22-73.17,80.48,2.57,23.18,47.6,28.69,32.87,59.15-17.78,36.77-73.76-19.19-70.55-53.37,1.32-14.11,11.28-26.4,11.18-43.72-.09-15.99-11.77-31.57-12.08-50.51-.42-26.06,15.42-53.42,12.83-74.37-1.71-13.81-29.41-46.53-37.68-62.43-6.28-12.07-8.77-24.66-14.02-36.6-5.31-12.06-44.01-63.25-4.63-63.9,39.72-.66,39.22,72.73,51.89,96.19,14.86,27.51,47.32,32.36,43.94,71.53-1.73,20.01-38.29,85.6-7.98,92.42,41.8,9.41,42.13-113.83,45.23-136.58,3.68-27.04,20.62-43.56,8.02-77.52-13.81-37.24-43.68-22.87-70.06-32.1-12.68-4.44-50.52-42.26-52.59-56.9-2.18-15.45,9.02-64.12-27.28-48.88-26.03,10.93-5.32,43.33-5.95,60.63-1.42,38.87-43.92,27.27-44.22-3.59-.1-10.15,12.66-73.82,17.74-80.55,19.67-26.1,44.53-.41,66.92-4.28,17.01-2.94,48.17-41.64,69.99-51.53,26.19-11.87,53.69-4.77,73.15-13.98,24.12-11.42,22.89-54.07,46.28-59.23,24.46-5.4,60.92,30.46,79.43,4.59,28.43-39.73-57.16-33.11-74.35-37.94-32.32-9.07-28.03-42.36-80.23-28.44-18.03,4.81-34.05,27.7-51.1,20.13-21.19-9.41-4.86-25.89-3.51-38.52,3-27.99-25.71-27.48-29.6-45.11-6.44-29.19,30.84-37.54,45.52-14.88,20.32,31.37-.76,59.95,67.85,44.46,40.04-9.04,43.32-51.22,61.33-58.73,23.81-9.92,33.44,14.53,27.1,34.26-6.85,21.3-43.52,13.33-43.89,36.33-.49,30.05,46.72,12.5,64.73,17.38,24.77,11.11,169.73,56.83,117.28,100.81-39.32,22.96-32.99-46.07-65.14-38.94-25.32,5.62-5.04,46.7-27.83,58.16-26.12,13.13-65.02-37.12-86.67-10.18-28.11,34.97,38.06,31.69,52.43,39.89,16.19,9.25,17.33,40.17,40.53,37.06,24.94-3.34,4.71-48.01,26.1-57.45,23.54-10.39,88.57,38.64,98.88-18.1,2.92-16.06-8.01-73.32,31.65-46.28,37.58,25.61-18.48,76.05-25.28,104.58-10.68,44.79.21,60.18,2.58,97.56,3.12,49.15-25.27,47.15-32.91,73.36-5.8,19.89,3.15,38.82-5.07,61.89-32.13,49.76-38.88,19.28-44.71,92.14-7.99,31.15-32.11,50.87-34.68,92.67-1.85,30.16,18.01,47.83,18.42,69.7.62,33.23-33.3,56.41-7.6,103.8,20.26,37.34,76.23-20.48,88.42,16.25,15.52,46.76-48.52,26.26-69.22,28.41-39.4,4.1-30.57,62.18-55.82,82.08-20.9,16.47-39.29,2.03-58.86,7.96-15.63,4.73-19.05,38.41-41.83,27.56-20.84-9.93,4.66-46.54-18.88-54.39-12.75-4.25-36.57,2.93-54.32.56-18.98-2.53-41.1-16.04-58.89-17.52-21.09-1.75-72.95,5.93-65.65,37.26,6.85,29.46,46.02,6.32,60.54,4.99,15.76-1.44,65.49,7.96,79.38,15.58,13.98,19.08,88.27,62.94,39.1,85.13-33.66,15.19-35.25-27.5-52.64-44.24-34.67-33.36-54.72-8.63-88.11-11.46-99.19-34.03-4.47,60.18-64.36,57.93-52.52-5.75-6.01-79.5-1.87-103.93,5.38-168.22-63-102.12-66.67-156.11-1.66-71.48,35.46-72.13,63.23-110.46,23.61-32.59-1.47-44.89-2.4-73.4-.73-22.24,10.64-42,9.72-64.41-.57-13.73-44.68-96.24-54.73-111.03-8.46-12.44-32.36-27.58-34.75-38.18-5.9-26.16,14.69-41.57,37.33-27.33,10.96,6.9,91.5,162.9,91.42,177.01-.11,18.39-10.1,38.87-9.56,61.58.64,26.85,14.82,45.21,6.78,75.73-7.55,28.65-65.61,45.99-73.01,90.62-4.34,26.15,22.2,38.9,36.36,16.51,5.71-9.03,20.13-80.5,48.99-50.84,20.23,20.79-20.03,50.04-27.35,67.47-11.52,27.41-3.67,100.76,36.22,75.9,27.19-16.94-24.41-64.72,9.17-95.26ZM891.63,552.73c19.97-3.2,28.6-55.49-.61-54.66-29.54.84-33.51,60.12.61,54.66Z"/>
            <path class="cls-3" d="M651.5,900.94c-21.52,3.04-36.53-10.71-24.68-31.46,2.65-4.64,41.3-27.49,47.61-29.46,16.28-5.08,49.18.96,52.93-20.74,5.58-32.31-44.09-9.22-44.06-42.27.04-46.09,71.38-9.43,77.51,6.39,4.63,11.96-2.99,56.79-11.06,67.76-9.8,13.31-37.16,15.1-53.33,22.84-12.28,5.88-33.76,25.36-44.93,26.94Z"/>
            <path class="cls-3" d="M680.05,973.58c-16.74,1.19-38.98-7.55-38.18-26.97,1.21-29.21,35.45-12.33,55.89-20.24,20.01-7.74,34.75-51.74,59.81-35.47,14.2,9.22,6.46,34.75-2.25,45.76-6.03,7.62-65.15,36.2-75.27,36.92Z"/>
            <path class="cls-3" d="M746.74,1062.28c-10.96,1.88-70.53-16.68-71.45-32.47-1.66-28.5,26.64-20.49,42.12-27.01,12.25-5.16,19.8-26.69,37.73-14.88,16.03,10.55,13.83,70.53-8.41,74.36Z"/>
            <path class="cls-3" d="M638.14,1046.36c-37.83,8.63-50.36-58.96-27.74-68.88,32.1-14.08,58.29,61.91,27.74,68.88Z"/>
          </g>
          <path class="cls-3" d="M742.75,515.53c-32.56,5.08-69.32-70.81-33.26-69.83,18.63.51,71.33,63.88,33.26,69.83Z"/>
          <path class="cls-3" d="M793.46,571.7c-30.44,3.57-42.99-58.19-12.45-62.69,40.64-5.99,35.61,59.97,12.45,62.69Z"/>
          <path class="cls-3" d="M598.72,659.27c-22.65,2.39-43.31-48.2-17.65-54.69,29.87-7.55,44.62,51.85,17.65,54.69Z"/>
        </g>
        <path class="cls-3" d="M880.35,791.3c-4.71-12.13.36-27.72,14.09-30.65,26.38-5.64,32.52,33.32,62.57,31.21,5.83-.41,64.41-15.91,69.61-18.52,24.48-12.31,24.19-43.92,60.72-41.7,15.15.92,44.07,21.39,57.96-.54,16.79-26.51-41.8-38.51-58.34-39.07-62.18-2.11-91.27,104.22-163.36,45.1-54.88-45,47.08-75.48,70.72-106.72,22.5-29.72,19.12-55.91,31.26-79.74,19.45-38.17,75.06,24.56,94.9,35.73,47.35,19.7,38.78,10.79,78.06,44.7,13.91,6.36,43.42.84,48.09,17.57,5.75,20.6-34.57,27.14-48.39,42.64-17.35,19.45-23.5,67.41-47.06,78.48-25.19,11.83-42.56-3.71-64.38,1.07-23.45,5.14-25.59,34.33-45.51,41.34-18.48,6.5-89.44-12.67-72.9,29.15,14.28,36.11,81.81-23.59,107.19,30.15,24.62,59.31-34.04,90.94-84.22,93.92-15.06,4.53-45.98,31.1-59.08,13.23-13.53-18.46,25.66-49.57,41.6-52.22,16.49-2.74,82.93,7.79,71.64-33.35-7.17-26.14-41.47-4.19-53.84-2.11-51.49,8.66-44.44-46.45-63.77-70.23-11.15-13.71-42.54-16.52-47.55-29.42ZM1002.89,678.72c-15.9-16.17-61.29,10.48-47.33,34.75,13.08,22.74,69.41-12.3,47.33-34.75ZM1021.87,670.55c18.93,15.86,35.18-16.28,43.68-21.08,33.14-18.72,80.14,51.59,108.21,30.85,40.76-30.12-52.84-51.63-67.17-60.26-36.39-27.88-49.93-59.56-67.41,2.36-6.39,10.94-34.98,33.33-17.31,48.13Z"/>
        <path class="cls-3" d="M159.17,818.39c-26.11-15.74-5.04-42.85,21.32-38.87,14.97,2.26,54.28,27.4,67.36,37.17,20.38,15.22,53.41,68.52,76.7,23.98,16.99-32.5-34-38-50.64-47.24-25.64-14.24-73.02-60.6-103.54-51.99-12.35,3.48-68.73,45.85-73.83,4.67-4.39-35.45,57.26-22.15,69.27-39.9,7.25-10.71-3.22-28.16-2.72-40.64,1.51-37.07,32.5-53.69,48-81.07,10.94-19.32,1.04-44.34,12.06-60.07,14.54-20.75,53.12-39,71.64-58.57,12.98-13.72,43.07-87.85,61.96-35.96,16.05,44.09-73.99,77.66-95.08,110.32-10.57,16.38-8.07,40.24-17.55,58.56-14.95,28.89-57.84,61.41-41.45,100.94,12.7,30.63,41.67,26.11,61.76,38.98,12.71,8.14,30.79,37.07,44.9,33.13,20.89-5.84,6.57-36.35,7.72-50.73,2-25.02,7.75-75.32,43.93-54,23.79,14.02,78.19,61.22,80.42,89.45,1.49,18.83-2.1,95.78-36.83,80.46-32.91-14.51-.25-58.25-4.99-83.01-16.39-54.72-63.83-54.81-46.43,8.87-12.71,52.11,17.23,53.66,11.81,86.02-4.6,10.37-70.61,54.81-79.51,53.71-15.2-1.88-53.26-55.31-75.21-69.36-18.48-11.82-39.72-7.98-51.05-14.81Z"/>
        <path class="cls-3" d="M586.78,359.5c-43.03,24.13-38.25-13.92-67.9-42.8-15.25-14.86-37.01-30.8-59.3-25.89-24.89,5.47-78.38,24.36-55.27,57.15,20.72,29.4,43.47-8.62,57.8-14.71,27.43-11.64,76.96,32.42,34.72,46.5-71.13.15-104.56,55.59-128.33-46.24-6.97-14.29-30.11-27.12-25.58-43.99,6.92-25.77,37.52-3.96,51.39-7.6,22.39-5.88,55.41-33.89,73.47-36.68,34.23-5.3,85.05,72.22,106.61,74.76,32.48,3.83,85.19-75.36,101.14-27.17,8.91,26.92-33.71,30.85-48.98,39.61-13.28,7.62-27.35,20.11-39.76,27.07Z"/>
        <path class="cls-3" d="M355.19,382.24c-28.16,43.1-50.25-31.4-80.22-9.06-36.98,27.56,28.13,32.25,13.24,55.53-26.08,40.77-47.47-37.15-80.83-9.4-37.22,30.95,44.1,23.19,27.91,52.99-17.59,32.37-45.95-10.18-60.26-16.23-9.34-3.94-65.01,13.36-48.06-22.22,11.01-23.09,30.43-8.12,47.17-18.04,29.09-17.23,79.91-50.06,103.12-73.01,10.76-10.64,12.39-55.13,34-43.28,24.77,13.59-4.46,39.08,14.86,52.1,6.77,4.56,45.36,5.67,29.07,30.61Z"/>
        <path class="cls-3" d="M1051.57,428.32c33.06-12.17,59.82,34.8,87.43,42.07,28.88,7.6,88.4-11.42,95.65,32.68,3.09,18.77-7.19,39.42-4.32,54.16,2.54,13.03,16.38,18.14,17.94,31.83,5.91,51.88-81.47-5.44-94.88-18.71-28.73-28.43-27.11-69.56-61.14-87.16-14.14-7.31-41.87-7.86-49.06-20.73-6.88-12.3-6.54-28.64,8.39-34.13ZM1164.02,499.74c-24.35,9.17.97,48.26,16.87,52.66,45.25,12.49,23.72-67.95-16.87-52.66Z"/>
        <path class="cls-3" d="M404.72,488.18c15.46,35.46-31.37,47.33-51.89,66.23-41.87,38.56-11.44,53.89-26.84,89.13-11.76,26.9-50.13,42.16-47.71.48,15.81-23.36,9.45-70.43,22.15-90.13,8-12.41,30.37-24.02,42.26-35.74,9.53-9.4,44.18-70.94,62.04-29.97Z"/>
        <path class="cls-3" d="M1007.68,488.43c-12.84,31.44-51.18,19.99-47.95-11.64,2.51-24.66,23.21-44.96,31.85-66.03,6.39-15.58,5.39-85.29,46.92-43.01,20.47,20.84-14.89,42.77-23.58,62.23-8.23,18.42-1.76,45.05-7.23,58.45Z"/>
        <path class="cls-3" d="M840.31,222.32c-32.88-37.51,73.08-89.97,61.44-18.81-4.55,27.81-42.66,40.24-61.44,18.81Z"/>
        <path class="cls-3" d="M61.44,309.1c-32.88-37.51,73.08-89.97,61.44-18.81-4.55,27.81-42.66,40.24-61.44,18.81Z"/>
        <path class="cls-3" d="M958.93,621.46c-44.32-7.08-3.27-83.94,19.87-77.69,25.04,6.76,19.67,84.01-19.87,77.69Z"/>
        <path class="cls-3" d="M420.13,238.27c-49.86,14.89-53.62-80.25-3.34-55.32,20.08,9.96,26.15,48.5,3.34,55.32Z"/>
      </g>
    </g>
  </g>
</svg>